<svg xmlns="http://www.w3.org/2000/svg" width="36" height="36" viewBox="0 0 36 36">
    <g fill="none" fill-rule="nonzero">
        <path fill="#FFF" stroke="#E2E2E2" d="M16 .5C7.44.5.5 7.44.5 16v4c0 8.56 6.94 15.5 15.5 15.5h4c8.56 0 15.5-6.94 15.5-15.5v-4C35.5 7.44 28.56.5 20 .5h-4z"/>
        <g transform="rotate(-135 11.95 13.886)">
            <path stroke="#979797" d="M2.63 5.564v19.812a2.382 2.382 0 1 0 4.764 0V5.567L5.406 2.4a.5.5 0 0 0-.85.005L2.629 5.564z"/>
            <path stroke="#979797" d="M2.63 19.9v5.476a2.382 2.382 0 1 0 4.764 0v-5.477H2.63z"/>
            <path fill="#FFF" stroke="#4F80FF" d="M2.147 18.618h5.588v1.471H2.147z"/>
            <rect width="8.059" height="2.294" x=".982" y="17.935" fill="#979797" stroke="#979797" rx="1.147"/>
            <path fill="#979797" d="M5.57 14.582h1.788a.412.412 0 1 1 0 .824H5.57a.412.412 0 0 1 0-.824zM5.57 12.253h1.788a.412.412 0 1 1 0 .824H5.57a.412.412 0 1 1 0-.824zM5.57 9.924h1.788a.412.412 0 1 1 0 .824H5.57a.412.412 0 1 1 0-.824z"/>
        </g>
        <path fill="#979797" d="M10.147 23.742l-.455 1.975a.25.25 0 0 0 .319.294l2.065-.648a.5.5 0 0 0 .201-.12l3.196-3.148a.25.25 0 0 0-.26-.413l-4.747 1.702a.5.5 0 0 0-.319.358z"/>
    </g>
</svg>
