<svg xmlns="http://www.w3.org/2000/svg" width="36" height="36" viewBox="0 0 36 36">
    <g fill="none" fill-rule="evenodd">
        <path fill="#FFF" fill-rule="nonzero" stroke="#4F80FF" d="M16 .5C7.44.5.5 7.44.5 16v4c0 8.56 6.94 15.5 15.5 15.5h4c8.56 0 15.5-6.94 15.5-15.5v-4C35.5 7.44 28.56.5 20 .5h-4z"/>
        <g fill-rule="nonzero" stroke="#4F80FF" transform="translate(9 9.5)">
            <rect width="19" height="2" x="-.5" y="1.5" fill="#FFF" rx="1"/>
            <circle cx="12.5" cy="2.5" r="2" fill="#FFB500"/>
        </g>
        <g fill-rule="nonzero" stroke="#4F80FF" transform="translate(9 15.5)">
            <rect width="19" height="2" x="-.5" y="1.5" fill="#FFF" rx="1"/>
            <circle cx="6.5" cy="2.5" r="2" fill="#FFB500"/>
        </g>
        <g fill-rule="nonzero" stroke="#4F80FF" transform="translate(9 21.5)">
            <rect width="19" height="2" x="-.5" y="1.5" fill="#FFF" rx="1"/>
            <circle cx="12.5" cy="2.5" r="2" fill="#FFB500"/>
        </g>
    </g>
</svg>
