<svg xmlns="http://www.w3.org/2000/svg" xmlns:xlink="http://www.w3.org/1999/xlink" width="190" height="176" viewBox="0 0 190 176"><defs><path id="aydfq16uua" d="M111.82.299L0 25.322l39.823 118.946s75.027-3.78 116.793 28.89l51.74-139.709L111.827.299"/><path id="kaph81li5c" d="M111.82.299L0 25.322l39.823 118.946s75.027-3.78 116.793 28.89l51.74-139.709L111.827.299"/><path id="378boo2cfe" d="M111.82.299L0 25.322l39.823 118.946s75.027-3.78 116.793 28.89l51.74-139.709L111.827.299"/><path id="s3i7fpjaxg" d="M111.82.299L0 25.322l39.823 118.946s75.027-3.78 116.793 28.89l51.74-139.709L111.827.299"/><path id="3nr5ewo6xi" d="M111.82.299L0 25.322l39.823 118.946s75.027-3.78 116.793 28.89l51.74-139.709L111.827.299"/><path id="nkevxmwwmk" d="M111.82.299L0 25.322l39.823 118.946s75.027-3.78 116.793 28.89l51.74-139.709L111.827.299"/><path id="cex71tbncm" d="M111.82.299L0 25.322l39.823 118.946s75.027-3.78 116.793 28.89l51.74-139.709L111.827.299"/><path id="dvprt4ywho" d="M111.82.299L0 25.322l39.823 118.946s75.027-3.78 116.793 28.89l51.74-139.709L111.827.299"/><path id="d0628olitq" d="M111.82.299L0 25.322l39.823 118.946s75.027-3.78 116.793 28.89l51.74-139.709L111.827.299"/><path id="ai1da1x1qs" d="M111.82.299L0 25.322l39.823 118.946s75.027-3.78 116.793 28.89l51.74-139.709L111.827.299"/><path id="peik53mjiu" d="M111.82.299L0 25.322l39.823 118.946s75.027-3.78 116.793 28.89l51.74-139.709L111.827.299"/><path id="t52q87cdkw" d="M111.82.299L0 25.322l39.823 118.946s75.027-3.78 116.793 28.89l51.74-139.709L111.827.299h-.007z"/><path id="r6y8ufwhwy" d="M111.82.299L0 25.322l39.823 118.946s75.027-3.78 116.793 28.89l51.74-139.709L111.827.299"/><path id="jddadf9rcA" d="M111.82.299L0 25.322l39.823 118.946s75.027-3.78 116.793 28.89l51.74-139.709L111.827.299"/><path id="pkki11w3cC" d="M111.82.299L0 25.322l39.823 118.946s75.027-3.78 116.793 28.89l51.74-139.709L111.827.299"/><path id="fmf1w42q2E" d="M111.82.299L0 25.322l39.823 118.946s75.027-3.78 116.793 28.89l51.74-139.709L111.827.299h-.007z"/><path id="v3lg4af5yG" d="M111.82.299L0 25.322l39.823 118.946s75.027-3.78 116.793 28.89l51.74-139.709L111.827.299"/><path id="no368qhu8I" d="M111.82.299L0 25.322l39.823 118.946s75.027-3.78 116.793 28.89l51.74-139.709L111.827.299"/><path id="5aw9sm99rK" d="M111.82.299L0 25.322l39.823 118.946s75.027-3.78 116.793 28.89l51.74-139.709L111.827.299"/><path id="4enrefenzM" d="M111.82.299L0 25.322l39.823 118.946s75.027-3.78 116.793 28.89l51.74-139.709L111.827.299"/><path id="9xh2hnrskO" d="M111.82.299L0 25.322l39.823 118.946s75.027-3.78 116.793 28.89l51.74-139.709L111.827.299"/><path id="5pnta938vQ" d="M111.82.299L0 25.322l39.823 118.946s75.027-3.78 116.793 28.89l51.74-139.709L111.827.299"/><path id="vo8ik3k0iS" d="M111.82.299L0 25.322l39.823 118.946s75.027-3.78 116.793 28.89l51.74-139.709L111.827.299"/><path id="1chiz2onxU" d="M111.82.299L0 25.322l39.823 118.946s75.027-3.78 116.793 28.89l51.74-139.709L111.827.299"/><path id="f1cfz2u24W" d="M111.82.299L0 25.322l39.823 118.946s75.027-3.78 116.793 28.89l51.74-139.709L111.827.299"/><path id="tjuddgrd9Y" d="M111.82.299L0 25.322l39.823 118.946s75.027-3.78 116.793 28.89l51.74-139.709L111.827.299h-.007z"/></defs><g fill="none" fill-rule="evenodd"><g><g><g><g transform="translate(-848 -476) translate(844 460) translate(0 .701)"><mask id="hwx9pqhcob" fill="#fff"><use xlink:href="#aydfq16uua"/></mask><path fill="#FFF" d="M68.416 43.966c-2.172 0-4.206-.875-5.729-2.465-3.084-3.216-3.076-8.416.018-11.592 2.683-2.753 5.535-4.902 8.481-6.386 2.432-1.226 4.611-1.798 6.853-1.798 1.916 0 3.927.436 6.152 1.332 2.652 1.07 5.199 3.432 6.982 6.485 3.393 5.81 1.88 10.431-.962 12.266-.726.468-1.493.705-2.284.705-2.099 0-3.923-1.686-5.112-2.952-1.264-1.347-2.355-2-3.336-2-1.476 0-2.965 1.52-4.689 3.28l-.752.763c-1.507 1.522-3.505 2.362-5.622 2.362" mask="url(#hwx9pqhcob)"/></g><g transform="translate(-848 -476) translate(844 460) translate(0 .701)"><mask id="pylz7qx6gd" fill="#fff"><use xlink:href="#kaph81li5c"/></mask><path fill="#000" d="M78.04 20.85c-2.386 0-4.689.602-7.25 1.892-3.03 1.527-5.962 3.733-8.712 6.557-3.42 3.509-3.43 9.255-.022 12.809 1.689 1.762 3.947 2.733 6.36 2.733 2.353 0 4.573-.931 6.246-2.624l.753-.763c1.585-1.62 2.956-3.018 4.064-3.018.716 0 1.624.58 2.698 1.723 1.3 1.386 3.313 3.229 5.748 3.229.963 0 1.892-.285 2.76-.846 3.18-2.052 4.927-7.134 1.243-13.44-1.879-3.217-4.58-5.716-7.41-6.856-2.33-.939-4.45-1.396-6.478-1.396m0 1.75c1.856 0 3.743.431 5.823 1.269 2.805 1.129 5.124 3.666 6.555 6.116 3.112 5.329 1.833 9.464-.683 11.088-.61.393-1.215.565-1.81.565-1.581 0-3.096-1.211-4.474-2.677-1.526-1.627-2.802-2.275-3.971-2.275-2.083 0-3.828 2.055-6.062 4.301-1.389 1.403-3.197 2.104-5.003 2.104-1.848 0-3.696-.732-5.096-2.194-2.772-2.891-2.77-7.521.012-10.377 2.416-2.481 5.168-4.663 8.248-6.216 2.275-1.146 4.349-1.704 6.462-1.704" mask="url(#pylz7qx6gd)"/></g><g transform="translate(-848 -476) translate(844 460) translate(0 .701)"><mask id="n1i6pzielf" fill="#fff"><use xlink:href="#378boo2cfe"/></mask><path fill="#673101" d="M74.603 36.176c-.552-.174-1.108-.107-1.625.05.634-.362 1.138-.96 1.356-1.737.445-1.563-.434-3.192-1.942-3.66-.705-.213-1.416-.108-2.033.195.545-.37.99-.906 1.183-1.592.445-1.563-.426-3.2-1.945-3.66-.136-.048-.274-.026-.417-.043-3.181 2.141-5.356 4.292-5.848 4.79-2.783 2.853-2.784 7.487-.009 10.378 2.766 2.888 7.286 2.925 10.095.09.828-.833 1.941-1.757 3.144-2.604-.221-1.016-.921-1.899-1.959-2.207" mask="url(#n1i6pzielf)"/></g><g transform="translate(-848 -476) translate(844 460) translate(0 .701)"><mask id="znoxqa2y0h" fill="#fff"><use xlink:href="#s3i7fpjaxg"/></mask><path fill="#0099ED" d="M111.807 180.79c9.617 0 18.53-2.022 25.778-5.85 8.94-4.718 15.827-13.788 17.547-23.108 2.14-11.606-1.511-22.663-5.434-32.992-.405-1.064-.85-2.075-1.282-3.067-1.247-2.844-2.425-5.532-2.293-8.792.187-4.651 1.509-8.948 2.909-13.497.535-1.735 1.086-3.53 1.562-5.325 1.73-6.544.972-13.338.117-18.524-1.634-9.915-5.836-18.539-11.522-23.659-9.253-8.331-20.332-13.44-30.4-14.014l-.19-.014c-1.92-.139-3.81-.209-5.611-.209-10.557 0-19.475 2.448-27.364 7.326C50.39 54.67 58.116 83.284 61.244 93.993c.829 2.828 5.306 13.111 6.353 14.486.378.958.624 1.744.769 2.473.988 4.927.04 10.794-.797 15.969l-.18 1.111c-2.745 17.154-2.17 29.344 1.709 36.234 7.827 13.909 23.833 15.214 36.694 16.26l.467.037c1.84.152 3.708.228 5.548.228" mask="url(#znoxqa2y0h)"/></g><g transform="translate(-848 -476) translate(844 460) translate(0 .701)"><mask id="c52rtrhvpj" fill="#fff"><use xlink:href="#3nr5ewo6xi"/></mask><path fill="#000" d="M102.987 32.79c-10.242 0-19.01 2.346-26.812 7.169C51.083 55.474 59.49 84.243 62.253 93.696c.801 2.743 5.248 12.925 6.178 14.148l.14.248c.405 1.02.666 1.865.825 2.654 1.026 5.114.06 11.079-.79 16.342l-.18 1.11c-2.708 16.911-2.172 28.873 1.585 35.552 7.554 13.422 23.25 14.702 35.862 15.728l.468.038c1.812.149 3.65.224 5.465.224 9.444 0 18.19-1.98 25.287-5.728 8.668-4.576 15.343-13.357 17.006-22.37 2.092-11.34-1.512-22.24-5.383-32.43-.398-1.046-.836-2.04-1.263-3.017-1.299-2.966-2.522-5.76-2.38-9.257.192-4.791 1.534-9.148 2.954-13.763.533-1.724 1.08-3.504 1.552-5.285 1.678-6.35.933-13 .095-18.082-1.596-9.684-5.673-18.085-11.188-23.053-9.078-8.174-19.924-13.184-29.757-13.744l-.21-.017c-1.882-.136-3.745-.203-5.532-.203m8.82 149.05c-1.875 0-3.77-.079-5.633-.232l-.465-.037c-13.114-1.067-29.428-2.398-37.526-16.792-3.999-7.101-4.614-19.522-1.832-36.915l.18-1.112c.823-5.088 1.756-10.853.806-15.596-.126-.635-.342-1.328-.672-2.175-1.312-1.939-5.61-11.898-6.428-14.695-2.874-9.835-11.618-39.759 14.834-56.115 9.546-5.902 20.448-8.221 33.603-7.271l.195.015c10.283.587 21.596 5.792 31.022 14.28 5.863 5.28 10.183 14.126 11.855 24.27.871 5.288 1.644 12.225-.137 18.96-.48 1.81-1.036 3.618-1.576 5.368-1.377 4.478-2.679 8.71-2.862 13.23-.122 3.013 1.006 5.59 2.201 8.317.446 1.019.894 2.044 1.306 3.125 3.976 10.47 7.676 21.683 5.485 33.556-1.774 9.623-8.874 18.984-18.089 23.849-7.399 3.904-16.482 5.97-26.268 5.97" mask="url(#c52rtrhvpj)"/></g><g transform="translate(-848 -476) translate(844 460) translate(0 .701)"><mask id="54emiodhll" fill="#fff"><use xlink:href="#nkevxmwwmk"/></mask><path fill="#0099ED" d="M105.05 32.567l.198.009-.198-.01" mask="url(#54emiodhll)"/></g><g transform="translate(-848 -476) translate(844 460) translate(0 .701)"><mask id="ytfphqheqn" fill="#fff"><use xlink:href="#cex71tbncm"/></mask><path fill="#FFF" d="M88.985 114.922c4.021 0 7.85-.342 11.381-1.014 17.16-3.267 26.882-7.252 32.401-19.959 2.923-6.73 1.926-15.685.021-21.82-1.043-3.358-2.199-6.896-3.863-10.002-4.51-8.428-14.793-18.098-26.715-19.41-2.725-.3-5.338-.454-7.766-.454-10.892 0-19.85 3.096-27.38 9.467-4.655 3.937-8.31 10.086-9.095 15.301-.719 4.773-.232 13.056-.119 14.794-.877 1.155-2.928 3.895-3.197 4.674-1.675 4.856-1.287 9.853 1.125 14.448 2.886 5.498 8.366 9.72 15.038 11.581 5.608 1.566 11.891 2.394 18.17 2.394" mask="url(#ytfphqheqn)"/></g><g transform="translate(-848 -476) translate(844 460) translate(0 .701)"><mask id="q1fx4by9gp" fill="#fff"><use xlink:href="#dvprt4ywho"/></mask><path fill="#000" d="M94.444 43.138c-10.676 0-19.448 3.03-26.815 9.26-4.506 3.812-8.04 9.745-8.796 14.763-.702 4.677-.215 12.99-.109 14.608l.02.326-.198.26c-1.945 2.555-2.94 4.066-3.066 4.43-1.594 4.623-1.223 9.38 1.072 13.756 2.775 5.285 8.06 9.347 14.498 11.145 5.537 1.545 11.741 2.362 17.936 2.362 3.962 0 7.736-.336 11.215-.999 16.861-3.21 26.401-7.1 31.762-19.448 2.83-6.512 1.85-15.227-.012-21.21-1.03-3.323-2.174-6.819-3.797-9.85-4.405-8.233-14.434-17.676-26.039-18.956-2.7-.297-5.28-.447-7.67-.447m-5.459 72.66c-6.353 0-12.717-.839-18.407-2.427-6.9-1.926-12.578-6.306-15.575-12.016-2.526-4.815-2.933-10.05-1.178-15.14.22-.639 1.273-2.205 3.131-4.66-.164-2.66-.535-10.123.147-14.653.813-5.409 4.59-11.774 9.394-15.84 7.697-6.51 16.838-9.674 27.946-9.674 2.454 0 5.1.153 7.863.458 12.236 1.35 22.774 11.245 27.388 19.87 1.7 3.165 2.872 6.751 3.928 10.154 1.953 6.285 2.965 15.477-.054 22.428-5.673 13.065-15.578 17.144-33.04 20.47-3.587.683-7.47 1.03-11.543 1.03" mask="url(#q1fx4by9gp)"/></g><g transform="translate(-848 -476) translate(844 460) translate(0 .701)"><mask id="e9mwao8j1r" fill="#fff"><use xlink:href="#d0628olitq"/></mask><path fill="#FFB9B5" d="M96.551 92.516c.117 6.1 5.344 10.938 11.668 10.809 6.325-.129 11.358-5.179 11.242-11.278-.118-6.093-5.34-10.931-11.665-10.802-6.325.129-11.362 5.179-11.245 11.271" mask="url(#e9mwao8j1r)"/></g><g transform="translate(-848 -476) translate(844 460) translate(0 .701)"><mask id="5tuykacnpt" fill="#fff"><use xlink:href="#ai1da1x1qs"/></mask><path fill="#FFB9B5" d="M55.07 94.494c.868 6.15 5.03 10.57 5.496 10.562 2.516-.048 3.695-5.015 2.76-10.761-.934-5.74-5.024-11.05-6.455-9.2-1.235 1.596-2.199 4.536-1.8 9.399" mask="url(#5tuykacnpt)"/></g><g transform="translate(-848 -476) translate(844 460) translate(0 .701)"><mask id="nywk6bbw6v" fill="#fff"><use xlink:href="#peik53mjiu"/></mask><path fill="#D74848" d="M73.585 99.76c.223 3.397 3.235 4.935 6.874 4.57 4.192-.422 7.837-6.163 7.837-6.163l-5.95 1.256-3.433-2.69s-3.507 1.811-5.5 1.743" mask="url(#nywk6bbw6v)"/></g><g transform="translate(-848 -476) translate(844 460) translate(0 .701)"><mask id="dsg8okhqbx" fill="#fff"><use xlink:href="#t52q87cdkw"/></mask><path fill="#FFF" d="M75.889 97.72l.06.808c-.171.49.144 1.014.657 1.093l5.378.404s.62.083 1.01-.114c.546-.275.427-.552.427-.552l-.894-.597-6.638-1.042z" mask="url(#dsg8okhqbx)"/></g><g transform="translate(-848 -476) translate(844 460) translate(0 .701)"><mask id="9hy0ltmbbz" fill="#fff"><use xlink:href="#r6y8ufwhwy"/></mask><path fill="#000" d="M79.92 105.443c-1.266 0-2.527-.24-3.62-.737-2.377-1.087-3.94-3.917-4.077-6.026-.031-.483.333-.9.817-.93.43-.01.897.333.93.815.102 1.569 1.355 3.77 3.058 4.549 2.159.986 5.392.663 7.063-.7 1.058-.863 1.538-2.25 2.005-3.591.132-.38.26-.754.402-1.112.176-.452.683-.677 1.133-.498.449.175.673.682.497 1.132-.131.34-.254.694-.38 1.052-.52 1.498-1.108 3.195-2.55 4.373-1.34 1.093-3.313 1.673-5.278 1.673" mask="url(#9hy0ltmbbz)"/></g><g transform="translate(-848 -476) translate(844 460) translate(0 .701)"><mask id="7dtzrwb7fB" fill="#fff"><use xlink:href="#jddadf9rcA"/></mask><path fill="#000" d="M70.147 89.253c1.264-.114 2.184-1.186 2.056-2.394l-.033-.306c-.127-1.209-1.255-2.097-2.519-1.983-1.263.115-2.185 1.187-2.057 2.396l.032.306c.128 1.21 1.257 2.094 2.521 1.981" mask="url(#7dtzrwb7fB)"/></g><g transform="translate(-848 -476) translate(844 460) translate(0 .701)"><mask id="5nuki5f4wD" fill="#fff"><use xlink:href="#pkki11w3cC"/></mask><path fill="#000" d="M91.205 88.115c1.363-.46 2.123-1.802 1.699-3.001l-.108-.305c-.424-1.2-1.873-1.8-3.236-1.341-1.362.458-2.124 1.803-1.7 3l.108.306c.424 1.199 1.874 1.799 3.237 1.34" mask="url(#5nuki5f4wD)"/></g><g transform="translate(-848 -476) translate(844 460) translate(0 .701)"><mask id="fd1r1fv2tF" fill="#fff"><use xlink:href="#fmf1w42q2E"/></mask><path fill="#000" d="M83.88 99.727c-.46 0-.949-.03-1.467-.097-2.32-.3-3.724-1.153-4.45-1.753-3.542 2.438-6.618 1.362-8.186.46-.79-.456-.997-1.013-1.03-1.399-.07-.77.478-1.274.588-1.367.37-.309.921-.262 1.234.107.271.322.27.784.018 1.102l.064.04c1.556.897 4.004 1.49 6.844-.773.186-.148.425-.214.661-.183.236.032.45.16.59.351.034.044 1.05 1.312 3.893 1.68 2.901.376 4.925-.649 5.844-1.73.041-.048.088-.092.137-.13.263-.202.542-.492.665-.68-.2-.317-.18-.739.075-1.037.318-.367.871-.408 1.234-.094.333.284.507.677.495 1.105-.027.911-.948 1.736-1.336 2.041-.598.674-2.44 2.357-5.874 2.357z" mask="url(#fd1r1fv2tF)"/></g><g transform="translate(-848 -476) translate(844 460) translate(0 .701)"><mask id="xiq9du530H" fill="#fff"><use xlink:href="#v3lg4af5yG"/></mask><path fill="#FFF" d="M138.123 45.376c2.431 0 4.712-1.02 6.423-2.873 3.455-3.73 3.482-9.77.059-13.462-3.024-3.265-6.244-5.81-9.571-7.569-2.747-1.45-5.208-2.129-7.745-2.129-2.159 0-4.434.512-6.954 1.57-4.258 1.783-6.95 5.926-7.911 7.623-3.463 6.121-4.002 8.756-.113 11.352 2.362 1.575 3.771 2.19 5.024 2.19 1.441 0 2.505-.85 3.661-2.126 1.443-1.593 2.755-2.366 4.01-2.366 2.091 0 4.072 2.103 6.367 4.538l.459.486c1.678 1.784 3.913 2.766 6.291 2.766" mask="url(#xiq9du530H)"/></g><g transform="translate(-848 -476) translate(844 460) translate(0 .701)"><mask id="aeucj0csyJ" fill="#fff"><use xlink:href="#no368qhu8I"/></mask><path fill="#000" d="M125.006 36.71c2.468 0 4.568 2.23 7.001 4.813l.46.488c1.513 1.605 3.521 2.49 5.655 2.49 2.186 0 4.238-.92 5.781-2.592 3.153-3.403 3.181-8.91.062-12.273-2.957-3.192-6.099-5.678-9.339-7.392-4.857-2.563-8.729-2.714-13.952-.525-4.007 1.678-6.572 5.628-7.488 7.247-3.49 6.171-3.563 8.076-.39 10.194 2.175 1.451 3.49 2.042 4.54 2.042.982 0 1.798-.498 3.01-1.837 1.62-1.787 3.144-2.655 4.66-2.655m13.116 9.54c-2.62 0-5.082-1.079-6.928-3.039l-.458-.486c-2.156-2.289-4.018-4.265-5.73-4.265-.98 0-2.112.7-3.363 2.08-1.135 1.253-2.442 2.412-4.308 2.412-1.444 0-2.989-.655-5.51-2.336-4.496-3.002-3.684-6.285-.164-12.51 1.007-1.778 3.832-6.113 8.336-8 5.722-2.399 10.121-2.22 15.446.591 3.416 1.806 6.714 4.413 9.805 7.75 3.726 4.018 3.7 10.591-.059 14.651-1.878 2.032-4.387 3.152-7.067 3.152" mask="url(#aeucj0csyJ)"/></g><g transform="translate(-848 -476) translate(844 460) translate(0 .701)"><mask id="bdzgc3azoL" fill="#fff"><use xlink:href="#5aw9sm99rK"/></mask><path fill="#673101" d="M131.117 36.32c.63-.205 1.263-.126 1.852.062-.72-.43-1.29-1.144-1.534-2.068-.495-1.858.517-3.796 2.24-4.352.804-.252 1.614-.127 2.315.234-.618-.44-1.12-1.078-1.337-1.895-.495-1.86.51-3.805 2.243-4.352.155-.056.313-.028.476-.05 3.608 2.55 6.071 5.11 6.628 5.7 3.15 3.399 3.118 8.91-.065 12.346-3.172 3.434-8.322 3.475-11.503.097-.937-.99-2.198-2.09-3.563-3.098.26-1.207 1.063-2.258 2.248-2.623" mask="url(#bdzgc3azoL)"/></g><g transform="translate(-848 -476) translate(844 460) translate(0 .701)"><mask id="kwlbnn1uyN" fill="#fff"><use xlink:href="#4enrefenzM"/></mask><path fill="#000" d="M75.411 92.477c.09.824 1.097 1.392 2.265 1.269 1.17-.123 2.036-.887 1.945-1.711-.089-.817-1.103-1.391-2.272-1.268-1.167.122-2.028.893-1.938 1.71" mask="url(#kwlbnn1uyN)"/></g><g transform="translate(-848 -476) translate(844 460) translate(0 .701)"><mask id="8wolc4x28P" fill="#fff"><use xlink:href="#9xh2hnrskO"/></mask><path fill="#FFF" d="M109.3 168.77l.29.26c2.904 2.635 1.265 4.883-.859 7.26-2.507 2.809-4.444 3.616-5.582 7.362-.189.623-.299 1.239-.373 1.852-.304 2.515.352 6.616.81 9.182.758 4.248-9.438 4.994-9.06 5.432-.242-3.503-2.186-6.44-2.504-8.93-.21-1.647.284-7.9.703-9.345 1.78-6.126 5.933-10.114 10.99-13.682 2.24-1.581 3.447-1.27 5.584.609" mask="url(#8wolc4x28P)"/></g><g transform="translate(-848 -476) translate(844 460) translate(0 .701)"><mask id="zhl89u3x0R" fill="#fff"><use xlink:href="#5pnta938vQ"/></mask><path fill="#0099ED" d="M93.642 199.696c.2.004.319-.193.24-.376-.969-2.246-1.565-5.82-1.86-8.132-.165-1.287-.056-4.768.245-6.23-.21 1.039 3.041 1.528 3.645 1.599 2.404.287 5.532.17 6.863-1.052-.303 2.514.352 6.616.81 9.18.408 2.277 1.184 4.19 2.1 6.046" mask="url(#zhl89u3x0R)"/></g><g transform="translate(-848 -476) translate(844 460) translate(0 .701)"><mask id="l9lyme61nT" fill="#fff"><use xlink:href="#vo8ik3k0iS"/></mask><path fill="#FFF" d="M81.771 166.26l.22.322c2.183 3.257.051 5.043-2.584 6.84-3.11 2.121-5.184 2.437-7.192 5.798-.334.56-.589 1.131-.809 1.708-.901 2.367-1.253 6.506-1.427 9.106-.287 4.306-10.364 2.572-10.102 3.087.61-3.458-.569-6.775-.278-9.269.193-1.65 2.181-7.599 2.936-8.9 3.203-5.516 8.195-8.385 13.964-10.63 2.555-.995 3.651-.4 5.272 1.938" mask="url(#l9lyme61nT)"/></g><g transform="translate(-848 -476) translate(844 460) translate(0 .701)"><mask id="8o54smcy3V" fill="#fff"><use xlink:href="#1chiz2onxU"/></mask><path fill="#0099ED" d="M59.121 192.5c.192.051.356-.112.323-.309-.399-2.413-.115-6.025.155-8.339.15-1.29 1.096-4.642 1.74-5.988-.455.957 2.583 2.216 3.152 2.431 2.265.857 5.328 1.5 6.915.633-.9 2.367-1.253 6.506-1.427 9.106-.154 2.307.14 4.35.58 6.372" mask="url(#8o54smcy3V)"/></g><g transform="translate(-848 -476) translate(844 460) translate(0 .701)"><mask id="5gt15zme8X" fill="#fff"><use xlink:href="#f1cfz2u24W"/></mask><path fill="#000" d="M106.184 168.025c-.584 0-1.174.293-1.965.85-4.238 2.992-8.82 6.902-10.653 13.213-.129.44-.29 1.546-.428 2.958-.272 1.345-.379 4.315-.275 5.702.008.132.016.24.028.329.252 1.983.823 5.646 1.793 7.895l.114.263-.088.97-.566.073c-.8.258-4.64 3.393-5.099 3.85l-1.038 1.078c-1.269 1.309-1.532 1.582-2.651 3.102-3.113 4.23-2.031 9.909.019 13.814 1.525 2.904 3.395 4.203 6.168 4.124 2.431-.083 6.366-1.926 8.832-3.617 2.927-2.008 4.165-3.147 6.728-6.826 1.459-2.092 2.484-5.958 2.493-9.397.001-1.37-.519-1.945-1.462-2.99l-.427-.478c-.642-.732-1.288-1.422-1.92-2.1-.512-.544-1.015-1.083-1.503-1.628l-.243.028-.245-.632c-.5-1.304-.852-2.534-1.072-3.765-.207-1.162-.505-2.91-.7-4.67-.091-.852-.162-1.705-.189-2.502-.013-.408-.015-.802-.004-1.178.011-.388.035-.755.078-1.094.09-.756.218-1.393.402-2 .884-2.906 2.25-4.213 3.832-5.726.597-.57 1.245-1.188 1.936-1.962 2.388-2.676 3.046-4.106.924-6.031l-.228-.203c-1.12-.985-1.853-1.45-2.59-1.45M91.29 228c-3.188 0-5.699-1.704-7.464-5.066-2.296-4.372-3.472-10.783.122-15.664 1.188-1.615 1.497-1.935 2.8-3.282l1.038-1.077c.213-.223 3.288-2.845 5.031-3.903-.893-2.431-1.42-5.812-1.662-7.71-.016-.124-.029-.27-.038-.434-.115-1.525-.002-4.64.292-6.08.095-1.013.27-2.476.475-3.186 1.987-6.83 6.84-10.987 11.326-14.154 2.77-1.955 4.42-1.307 6.668.669l.3.267c3.75 3.403.906 6.589-.794 8.494-.725.812-1.403 1.462-2.03 2.06-1.52 1.453-2.617 2.503-3.367 4.972-.154.506-.263 1.047-.343 1.702-.035.293-.056.603-.064.932-.01.34-.008.698.005 1.068.024.759.09 1.564.18 2.373.188 1.707.478 3.415.681 4.55.194 1.075.484 2.113.912 3.25.553.628 1.123 1.239 1.706 1.86.645.693 1.303 1.395 1.959 2.142l.41.46c.986 1.09 1.915 2.119 1.912 4.167-.008 3.179-.879 7.627-2.805 10.392-2.703 3.877-4.094 5.155-7.172 7.268-2.215 1.518-6.645 3.817-9.766 3.923-.105.005-.209.007-.312.007" mask="url(#5gt15zme8X)"/></g><g transform="translate(-848 -476) translate(844 460) translate(0 .701)"><mask id="kxteclyi5Z" fill="#fff"><use xlink:href="#tjuddgrd9Y"/></mask><path fill="#000" d="M59.478 193.178c-.858.066-5.335 2.184-5.886 2.514l-1.268.797c-1.546.964-1.867 1.166-3.32 2.372-4.042 3.354-4.359 9.127-3.312 13.41.779 3.187 2.367 4.931 4.992 5.49 2.384.502 6.642-.335 9.445-1.383 3.324-1.242 4.8-2.05 8.174-5.002 1.919-1.68 3.845-5.183 4.682-8.518.333-1.33-.032-2.015-.697-3.256l-.299-.565c-.445-.86-.901-1.68-1.35-2.486-.368-.66-.73-1.312-1.078-1.97l-.216-.033-.104-.659c-.176-1.415-.219-2.658-.135-3.913.042-.656.099-1.408.171-2.208.073-.803.164-1.65.277-2.49.056-.426.117-.847.188-1.26.239-1.418.516-2.53.847-3.402.274-.716.551-1.302.873-1.843 1.559-2.61 3.202-3.55 5.101-4.636.718-.41 1.494-.853 2.352-1.438 2.96-2.02 3.942-3.25 2.352-5.627l-.217-.316c-1.484-2.14-2.198-2.41-4.234-1.619-4.838 1.883-10.226 4.573-13.524 10.255-.232.4-.654 1.434-1.129 2.766-.585 1.235-1.407 4.091-1.641 5.466-.025.134-.043.238-.053.325-.232 1.99-.56 5.681-.162 8.1l.047.284-.148.331-.157.603-.571-.089zm-7.121 26.482c-.73 0-1.419-.057-2.036-.188-3.269-.694-5.396-2.978-6.328-6.786-1.176-4.797-.769-11.302 3.893-15.172 1.543-1.28 1.921-1.518 3.51-2.51l1.267-.796c.258-.162 3.872-1.969 5.824-2.579-.28-2.593.022-5.985.242-7.879.014-.123.038-.273.07-.44.259-1.507 1.118-4.5 1.75-5.822.269-.768.836-2.297 1.229-2.975 3.57-6.148 9.284-9.015 14.403-11.006 3.16-1.23 4.604-.206 6.309 2.255l.227.333c2.819 4.204-.709 6.611-2.816 8.051-.901.613-1.715 1.08-2.469 1.511-1.824 1.042-3.143 1.796-4.466 4.012-.27.452-.506.951-.743 1.571-.286.75-.54 1.783-.755 3.07-.067.394-.125.797-.181 1.202-.11.813-.197 1.636-.267 2.414-.072.783-.125 1.523-.167 2.166-.074 1.081-.042 2.16.1 3.375.388.746.798 1.484 1.215 2.233.456.822.921 1.657 1.376 2.534l.287.542c.694 1.296 1.35 2.52.853 4.507-.776 3.084-2.692 7.19-5.229 9.41-3.555 3.111-5.213 4.016-8.714 5.324-2.007.751-5.501 1.643-8.384 1.643z" mask="url(#kxteclyi5Z)"/></g></g><g><path fill="#FFF" d="M122.332 76.293c1.129.993 2.045 2.4 2.421 3.79 2.213 8.184-3.89 18.603-10.032 24.67-.744.733-1.572 1.347-2.452 1.874-.868-4.15-2.687-7.813-6.682-10.788.9-.394 1.778-.993 2.63-1.886 1.683-1.764 2.541-3.94 3.238-6.168.541-1.727 1.293-3.249 2.088-4.9 1.215-2.524 5.118-9.82 8.789-6.592" transform="translate(-848 -476) translate(844 460) translate(11 36.701)"/><path fill="#0087C6" d="M107.09 95.093c-.046-.044-4.112.141-4.588.121-1.451-.059-2.781-.174-4.23-.428-3.317-.58-6.698-1.154-9.771-2.598-2.092-.983-4.064-2.36-6.49-1.662-2.33.671-4.436 2.111-5.68 4.115-.764 1.23-1.234 2.262-1.236 3.68-.008 6.546 8.599 7.914 13.58 8.477 5.84.66 11.92 1.738 17.808 1.263.589-.048 5.93-.757 5.873-1.462-.346-4.244-1.691-8.104-5.266-11.506" transform="translate(-848 -476) translate(844 460) translate(11 36.701)"/><path fill="#000" d="M83.347 91.211c-.373 0-.73.051-1.092.155-2.213.638-4.101 2-5.18 3.736-.7 1.127-1.103 2.014-1.105 3.218-.007 5.522 7.305 6.987 12.805 7.608 1.19.135 2.39.286 3.597.44 3.64.46 7.405.936 11.062.936 1.036 0 2.038-.038 2.978-.115.938-.077 4.027-.566 5.037-.957l-.01-.1.459-.309c.863-.525 1.586-1.079 2.208-1.694 6.174-6.097 11.875-16.15 9.804-23.817-.326-1.205-1.131-2.46-2.155-3.363-.453-.396-.9-.59-1.366-.59-1.684 0-4.005 2.646-6.058 6.905l-.131.273c-.73 1.511-1.418 2.94-1.91 4.51-.701 2.243-1.605 4.586-3.441 6.51-.453.475-.933.893-1.428 1.244l-.226.16-.277.001c-.357.001-1.228.032-2.103.063-.93.033-1.862.066-2.214.066-1.797-.07-3.137-.207-4.48-.443l-.193-.035c-3.285-.574-6.681-1.169-9.8-2.633-.351-.166-.7-.342-1.05-.519-1.27-.643-2.471-1.25-3.731-1.25m20.087 17.843c-3.77 0-7.588-.484-11.281-.95-1.2-.153-2.39-.303-3.573-.436-3.931-.444-14.371-1.625-14.36-9.349.002-1.615.524-2.78 1.369-4.14 1.303-2.1 3.556-3.739 6.18-4.494.517-.149 1.047-.224 1.578-.224 1.677 0 3.122.731 4.522 1.438.333.17.666.338 1.005.497 2.907 1.366 6.184 1.94 9.354 2.494l.195.034c1.265.223 2.533.35 4.115.416.4.004 1.31-.032 2.213-.064.713-.025 1.424-.05 1.87-.06.33-.252.653-.543.964-.867 1.587-1.664 2.397-3.784 3.035-5.826.53-1.692 1.246-3.175 2.004-4.746l.132-.273c1.42-2.948 4.299-7.895 7.633-7.896.898 0 1.746.346 2.52 1.028 1.273 1.12 2.278 2.696 2.689 4.22 2.254 8.341-3.74 19.076-10.262 25.52-.656.646-1.4 1.231-2.265 1.78l-.101.145c-.921 1.085-6.363 1.628-6.417 1.632-.986.08-2.036.121-3.12.121" transform="translate(-848 -476) translate(844 460) translate(11 36.701)"/><path fill="#DADADA" d="M76.695 108.526l-1.686-3.853c-.012-.023-.04-.034-.05-.06l-1.908-4.412v-.003L60.324 70.76c-.162-.375-.532-.618-.94-.618H6.34c-.73 0-1.227.742-.947 1.418l15.375 37.129c.16.384.532.634.948.634h54.226c1.076-.226.753-.798.753-.798" transform="translate(-848 -476) translate(844 460) translate(11 36.701)"/><path fill="#9D9D9D" d="M103.878 108.298v-2.04c0-.567-.46-1.026-1.025-1.026H75.9c-.381 0-.714-.225-.891-.559l1.686 3.853s.324.572-.753.797h26.91c.567 0 1.026-.459 1.026-1.025" transform="translate(-848 -476) translate(844 460) translate(11 36.701)"/><path fill="#00A2FC" d="M73.052 100.2l-.001-.002v.003z" transform="translate(-848 -476) translate(844 460) translate(11 36.701)"/><path fill="#A3A3A3" d="M43.476 90.623l-.043-.079c-.26-.508-.973-.915-1.57-.912h-.095c-.02 0-.04.001-.058.003-.164.014-.297.066-.402.13l-.437-.944c-.295-.629-1.166-1.163-1.94-1.184l-1.073-.035-.05-.15c-.276-.57-1.06-1.061-1.768-1.078-.058-.002-.114 0-.168.005-.585.053-.863.477-.61 1.008l.087.145-1.265-.028c-.065 0-.128 0-.188.006-.638.058-.942.523-.673 1.097l.52 1.112c.08-.033.152-.075.257-.084.019-.002.039-.004.059-.004l.094.001c.597-.003 1.31.403 1.57.912l.044.079c.244.478.016.873-.517.922-.034.004-.07.005-.105.005l-.094-.001c-.164 0-.33-.043-.496-.098l.532 1.138c.295.629 1.167 1.153 1.94 1.174l4.846.141c.06.002.117-.001.17-.007.653-.058.966-.526.694-1.107l-.668-1.404c.23.092.464.163.69.163l.096.001c.036 0 .07-.001.104-.004.534-.05.76-.445.517-.924" transform="translate(-848 -476) translate(844 460) translate(11 36.701)"/><path fill="#E4B087" d="M3.974 110.431s-12.646 9.26 12.098 29.53c9.938 8.141 32.118 3.59 60.669 4.668 42.538 1.607 55.293 14.016 79.319-1.875 24.026-15.89 12.816-32.323 12.816-32.323H3.974z" transform="translate(-848 -476) translate(844 460) translate(11 36.701)"/><path fill="#251814" d="M168.421 111.54H4.911c-.613 0-1.109-.496-1.109-1.108 0-.612.496-1.109 1.11-1.109h163.51c.611 0 1.107.497 1.107 1.11 0 .611-.496 1.106-1.108 1.106" transform="translate(-848 -476) translate(844 460) translate(11 36.701)"/><path fill="#251814" d="M59.385 68.099H6.34c-1.028 0-1.982.51-2.553 1.364-.571.855-.676 1.931-.283 2.88l15.375 37.129c.478 1.152 1.59 1.896 2.836 1.896h81.136c1.694 0 3.07-1.377 3.07-3.07v-2.041c0-1.692-1.376-3.069-3.07-3.069H76.592l-1.666-3.807-12.723-29.43c-.486-1.125-1.592-1.852-2.817-1.852m0 2.044c.409 0 .778.243.94.618l12.726 29.437v.003l1.959 4.472c.176.334.509.559.89.559h26.953c.567 0 1.025.459 1.025 1.025v2.041c0 .567-.458 1.026-1.025 1.026H21.716c-.415 0-.79-.25-.947-.634L5.393 71.561c-.28-.675.217-1.418.948-1.418h53.044" transform="translate(-848 -476) translate(844 460) translate(11 36.701)"/><path fill="#FF6950" d="M155.094 24.863c-1.276-.383-2.127-1.585-2.065-2.915l.833-17.803c.072-1.54 1.562-2.61 3.044-2.185l5.597.418c1.994.149 3.41 2.007 3.024 3.97l-4.414 17.829c-.248 1.26-1.53 2.034-2.76 1.665l-3.259-.98z" transform="translate(-848 -476) translate(844 460) translate(11 36.701)"/><path fill="#000" d="M156.309 2.878c-.306-.014-.61.074-.865.258-.344.248-.553.632-.573 1.056l-.833 17.802c-.041.868.514 1.651 1.346 1.901l3.258.978c.319.093.651.055.938-.119.284-.172.477-.445.54-.772l4.427-17.876c.12-.615-.033-1.275-.443-1.81-.409-.538-1.004-.86-1.676-.91l-5.801-.455c-.106-.03-.212-.048-.318-.053m2.519 24.062c-.259-.013-.516-.056-.767-.132l-3.258-.979c-1.722-.516-2.868-2.132-2.784-3.93l.833-17.8c.049-1.046.563-1.995 1.414-2.605.819-.587 1.836-.78 2.809-.535l5.503.41c1.238.093 2.381.712 3.135 1.7.752.99 1.046 2.254.805 3.474l-4.425 17.876c-.161.831-.7 1.602-1.468 2.065-.545.33-1.172.485-1.797.456" transform="translate(-848 -476) translate(844 460) translate(11 36.701)"/><path fill="#FF6950" d="M158.314 35.166l-4.23-.913c-.898-.042-1.593-.806-1.55-1.703l.118-2.54c.042-.899.805-1.593 1.703-1.55l4.23.912c.898.043 1.592.805 1.55 1.704l-.118 2.54c-.042.898-.805 1.593-1.703 1.55" transform="translate(-848 -476) translate(844 460) translate(11 36.701)"/><path fill="#000" d="M154.14 29.447c-.173.006-.462.27-.478.61l-.12 2.54c-.015.34.248.63.589.647l4.294.912c.313-.017.568-.27.583-.588l.119-2.54c.016-.34-.247-.63-.59-.645l-4.396-.936zm4.128 6.729l-.167-.022-4.231-.913-.022-.001c-1.277-.061-2.392-1.292-2.324-2.737l.119-2.54c.068-1.453 1.306-2.58 2.759-2.513l4.398.935h.022c1.277.06 2.39 1.293 2.323 2.739l-.118 2.539c-.068 1.453-1.306 2.58-2.76 2.513z" transform="translate(-848 -476) translate(844 460) translate(11 36.701)"/></g><g stroke="#A8DDE9" stroke-linecap="round" stroke-linejoin="round"><path d="M7.602 7.062c.401 2.247-.863 4.807-.04 7.007.363.97 1.273 1.905 2.478 1.445 1.532-.583 1.163-3.095 1.165-4.4M.65.5C.835 1.702.251 3.07.631 4.247c.168.52.59 1.02 1.145.774.708-.313.538-1.656.54-2.354" transform="translate(-848 -476) translate(844 460) translate(108 59)"/></g></g></g></g></svg>