<svg xmlns="http://www.w3.org/2000/svg" width="32" height="32" viewBox="0 0 32 32"><g fill="none" fill-rule="evenodd"><g fill-rule="nonzero"><rect width="23" height="23" x=".5" y=".5" fill="#FFF" stroke="#4F80FF" rx="3"/><g><path fill="#4F80FF" d="M1 0h8.586c.552 0 1 .448 1 1 0 .265-.106.52-.293.707l-8.586 8.586c-.39.39-1.024.39-1.414 0C.105 10.105 0 9.85 0 9.586V1c0-.552.448-1 1-1z" transform="translate(4 4)"/><path fill="#BFD8E6" d="M15 16H6.414c-.552 0-1-.448-1-1 0-.265.106-.52.293-.707l8.586-8.586c.39-.39 1.024-.39 1.414 0 .188.188.293.442.293.707V15c0 .552-.448 1-1 1z" transform="translate(4 4)"/></g></g><rect width="31" height="31" x=".5" y=".5" fill="#FFF" fill-rule="nonzero" stroke="#4F80FF" rx="3"/><path fill="#4F80FF" d="M20.54 17.997l4.263 4.263 1.925-1.928c.14-.14.33-.218.527-.218.411 0 .745.334.745.745v6.396c0 .411-.334.745-.745.745H20.86c-.197 0-.387-.078-.527-.218-.29-.291-.29-.763 0-1.054l1.928-1.925-4.263-4.263 2.543-2.543zm-9.08 0l2.543 2.543-4.263 4.263 1.928 1.925c.29.291.29.763 0 1.054-.14.14-.33.218-.527.218H4.745C4.334 28 4 27.666 4 27.255V20.86c0-.411.334-.745.745-.745.198 0 .387.079.527.218l1.925 1.928 4.263-4.263zM27.255 4c.411 0 .745.334.745.745v6.396c0 .411-.334.745-.745.745-.198 0-.387-.079-.527-.218L24.803 9.74l-4.263 4.263-2.543-2.543 4.263-4.263-1.928-1.925c-.29-.291-.29-.763 0-1.054.14-.14.33-.218.527-.218h6.396zM11.141 4c.197 0 .387.078.527.218.29.291.29.763 0 1.054L9.74 7.197l4.263 4.263-2.543 2.543L7.197 9.74l-1.925 1.928c-.14.14-.33.218-.527.218-.411 0-.745-.334-.745-.745V4.745C4 4.334 4.334 4 4.745 4z"/></g></svg>