<svg xmlns="http://www.w3.org/2000/svg" width="40" height="40" viewBox="0 0 40 40">
    <g fill="none" fill-rule="evenodd">
        <g fill-rule="nonzero">
            <g>
                <g>
                    <g>
                        <g>
                            <path fill="#4F80FF" d="M11.233 11.233c.643-.643 1.663-.68 2.35-.113l.125.113 15.059 15.059c.683.683.683 1.791 0 2.475-.643.643-1.663.68-2.35.113l-.125-.113-15.059-15.059c-.683-.683-.683-1.791 0-2.475z" transform="translate(-12.000000, -8.000000) translate(12.000000, 8.000000)"/>
                            <path fill="#FFB500" d="M26.292 11.233c.683-.683 1.791-.683 2.475 0 .643.643.68 1.663.113 2.35l-.113.125-15.059 15.059c-.683.683-1.791.683-2.475 0-.643-.643-.68-1.663-.113-2.35l.113-.125 15.059-15.059z" transform="translate(-12.000000, -8.000000) translate(12.000000, 8.000000)"/>
                        </g>
                    </g>
                </g>
            </g>
        </g>
    </g>
</svg>
