<svg xmlns="http://www.w3.org/2000/svg" width="22" height="22" viewBox="0 0 22 22">
    <g fill="#979797" fill-rule="nonzero">
        <path d="M2.816 8.263c0 2.46.802 4.733 2.158 6.571a1.737 1.737 0 0 1 2.35 2.35 11.03 11.03 0 0 0 6.57 2.158v-1.237h3.474v3.474h-3.473v-1.237c-2.736 0-5.26-.91-7.285-2.443a1.737 1.737 0 0 1-2.352-2.352 12.026 12.026 0 0 1-2.442-7.284H.579V4.79h3.474v3.474H2.816z"/>
        <path d="M10.192 11.616l2.605-3.105.887.745-2.605 3.104 3.695-.862 2.482-4.535-2.82-2.367-4.037 3.232-.207 3.788zm3.845-8.185l1.824-2.174 4.435 3.722-1.824 2.173-2.93 5.356-6.643 1.55.373-6.81 4.765-3.817zm3.884 2.578l.744-.887-2.661-2.233-.744.887 2.66 2.233zm-3.936 1.988a.579.579 0 1 0-.744.887.579.579 0 0 0 .744-.887zm.744-.887a1.737 1.737 0 1 1-2.232 2.66 1.737 1.737 0 0 1 2.232-2.66z"/>
    </g>
</svg>
