<svg xmlns="http://www.w3.org/2000/svg" width="36" height="36" viewBox="0 0 36 36">
    <g fill="none" fill-rule="nonzero">
        <path fill="#FFF" stroke="#4F80FF" d="M16 .5C7.44.5.5 7.44.5 16v4c0 8.56 6.94 15.5 15.5 15.5h4c8.56 0 15.5-6.94 15.5-15.5v-4C35.5 7.44 28.56.5 20 .5h-4z"/>
        <g stroke="#4F80FF" transform="rotate(90 4.5 24.5)">
            <rect width="6" height="18" x=".5" y=".5" fill="#FFF" rx="2"/>
            <rect width="3" height="3" x="1.5" y="12.5" fill="#4F80FF" rx="1"/>
        </g>
        <g stroke="#4F80FF" transform="rotate(60 3.5 28.16)">
            <rect width="6" height="18" x="1.5" y=".5" fill="#FFF" rx="2"/>
            <rect width="2.5" height="2.8" x="1.25" y="11.9" fill="#4F80FF" rx="1"/>
        </g>
        <rect width="6" height="18" x=".5" y=".5" fill="#FFF" stroke="#4F80FF" rx="2" transform="rotate(30 -4.062 39.82)"/>
        <g transform="translate(9 7)">
            <rect width="7" height="19" x=".5" y=".5" fill="#FFF" stroke="#4F80FF" rx="2"/>
            <rect width="3" height="3" x="2.5" y="2.5" fill="#4F80FF" stroke="#4F80FF" rx="1"/>
            <rect width="3" height="3" x="2.5" y="12.5" fill="#4F80FF" stroke="#4F80FF" rx="1"/>
            <rect width="3" height="3" x="2.5" y="7.5" fill="#FFB500" stroke="#FFB500" rx="1"/>
        </g>
        <path fill="#4F80FF" d="M23.25 16.067a.5.5 0 0 1 .683.183l1 1.732a.5.5 0 0 1-.866.5l-1-1.732a.5.5 0 0 1 .183-.683zM24.5 22a.5.5 0 0 1 .5.5v2a.5.5 0 1 1-1 0v-2a.5.5 0 0 1 .5-.5zM20.5 22.676a.5.5 0 0 1 .5.5V24.5a.5.5 0 1 1-1 0v-1.324a.5.5 0 0 1 .5-.5zM20.044 18.574a.5.5 0 0 1 .683.183l.706 1.225a.5.5 0 0 1-.866.5l-.706-1.225a.5.5 0 0 1 .183-.683zM18.067 13.25a.5.5 0 0 1 .683-.183l1.732 1a.5.5 0 1 1-.5.866l-1.732-1a.5.5 0 0 1-.183-.683zM16.067 17.25a.5.5 0 0 1 .683-.183l1.732 1a.5.5 0 0 1-.5.866l-1.732-1a.5.5 0 0 1-.183-.683z"/>
    </g>
</svg>
