<svg width="34" height="34" viewBox="0 0 34 34" xmlns="http://www.w3.org/2000/svg">
    <g fill="none" fill-rule="evenodd">
        <circle fill="#FFF" cx="17" cy="17" r="17"/>
        <g transform="translate(7 11)">
            <path d="m13.533 6.1 6.667-5a.5.5 0 0 1 .8.4v10a.5.5 0 0 1-.8.4l-6.667-5a.5.5 0 0 1 0-.8z" fill="#2B406F"/>
            <rect fill="#36518D" width="16" height="13" rx="1"/>
        </g>
        <path d="m17.157 18.09-3.024 2.117a.72.72 0 0 1-1.133-.59v-4.234a.72.72 0 0 1 1.133-.59l3.024 2.117a.72.72 0 0 1 0 1.18z" fill="#FFF"/>
    </g>
</svg>
