<svg width="34" height="34" viewBox="0 0 34 34" xmlns="http://www.w3.org/2000/svg" xmlns:xlink="http://www.w3.org/1999/xlink">
    <defs>
        <path id="q6fubn9j8a" d="M0 0h14v11.928H0z"/>
    </defs>
    <g fill="none" fill-rule="evenodd">
        <circle fill="#FFF" cx="17" cy="17" r="17"/>
        <path d="M16.755 5.507a4.137 4.137 0 0 1 2.374.568c1.018.594 1.735 1.65 1.968 2.795.11.519.072 1.05.079 1.576-.005 2.178.008 4.355-.007 6.533a4.105 4.105 0 0 1-.822 2.495 4.25 4.25 0 0 1-2.458 1.58 4.105 4.105 0 0 1-2.607-.28c-.822-.377-1.532-1.01-1.96-1.807a4.244 4.244 0 0 1-.504-2.04c-.002-2.021 0-4.042-.002-6.063-.003-.803-.057-1.627.18-2.407a4.233 4.233 0 0 1 1.837-2.361 4.106 4.106 0 0 1 1.922-.589" fill="#36518D"/>
        <g transform="translate(10 16.572)">
            <mask id="llxs7r4p4b" fill="#fff">
                <use xlink:href="#q6fubn9j8a"/>
            </mask>
            <path d="M.001.877C.04.297.684-.124 1.236.033c.407.118.703.523.704.943-.006 1.183.446 2.353 1.215 3.25a5.099 5.099 0 0 0 2.56 1.604c1.66.461 3.537-.033 4.769-1.228a5.038 5.038 0 0 0 1.554-3.151c.035-.292-.022-.604.108-.879.184-.402.662-.64 1.096-.553.401.086.717.454.756.858.048 2.133-.982 4.245-2.666 5.56a7.062 7.062 0 0 1-3.36 1.43c-.004 1.05.003 2.098-.005 3.148-.013.535-.546.954-1.07.91-.478-.04-.867-.489-.87-.96-.002-1.032 0-2.064 0-3.095a7.135 7.135 0 0 1-4.122-2.137C.672 4.44-.037 2.663.001.877" fill="#2B406F" mask="url(#llxs7r4p4b)"/>
        </g>
    </g>
</svg>
