<svg xmlns="http://www.w3.org/2000/svg" width="16" height="16" viewBox="0 0 16 16">
    <g fill="none" fill-rule="evenodd">
        <circle cx="8" cy="8" r="8" fill="#FFB500"/>
        <path fill="#FFF" d="M7.939 10.48c.214 0 .394.072.54.218a.733.733 0 0 1 .218.54c0 .237-.076.424-.229.56a.773.773 0 0 1-.53.204.801.801 0 0 1-.541-.202c-.155-.134-.232-.321-.232-.562 0-.214.075-.394.224-.54a.757.757 0 0 1 .55-.219zM8.06 4c.492 0 .927.09 1.303.272.377.182.668.429.873.741.206.312.308.652.308 1.018 0 .289-.058.542-.175.759a2.322 2.322 0 0 1-.418.562c-.16.158-.45.424-.868.797a3.534 3.534 0 0 0-.277.278c-.07.08-.121.152-.155.218-.034.067-.06.133-.08.199a7.73 7.73 0 0 0-.083.349c-.065.353-.267.53-.606.53a.62.62 0 0 1-.446-.174c-.12-.115-.18-.287-.18-.514 0-.285.044-.532.132-.74a1.88 1.88 0 0 1 .351-.55 8.06 8.06 0 0 1 .59-.563c.218-.19.375-.334.472-.43a1.46 1.46 0 0 0 .244-.324.782.782 0 0 0 .1-.387.9.9 0 0 0-.303-.687c-.202-.186-.463-.28-.782-.28-.373 0-.648.094-.825.283-.176.188-.325.466-.448.832-.115.384-.334.575-.656.575a.646.646 0 0 1-.481-.2.615.615 0 0 1-.196-.436c0-.322.103-.65.31-.98.207-.33.51-.605.906-.822.397-.217.86-.326 1.39-.326z"/>
    </g>
</svg>
