<?xml version="1.0" encoding="UTF-8"?>
<svg width="16px" height="16px" viewBox="0 0 16 16" version="1.1" xmlns="http://www.w3.org/2000/svg" xmlns:xlink="http://www.w3.org/1999/xlink">
    <title>9B3A2834-A00E-48BB-AFAE-C40DE29FDF25</title>
    <defs>
        <path d="M0,0 L712,0 L712,363 C712,365.209139 710.209139,367 708,367 L4,367 C1.790861,367 3.12202057e-14,365.209139 0,363 L0,0 L0,0 Z" id="path-1"></path>
        <path d="M105.143719,0.519940512 L113.755,8.346 L202,8.34689556 C205.313708,8.34689556 208,11.0331871 208,14.3468956 L208,250.346896 C208,253.660604 205.313708,256.346896 202,256.346896 L6,256.346896 C2.6862915,256.346896 4.05812251e-16,253.660604 0,250.346896 L0,14.3468956 C-4.05812251e-16,11.0331871 2.6862915,8.34689556 6,8.34689556 L93.846,8.346 L102.453029,0.520298721 C103.215779,-0.173295634 104.380784,-0.17345073 105.143719,0.519940512 Z" id="path-3"></path>
        <filter x="-4.6%" y="-3.3%" width="109.1%" height="107.4%" filterUnits="objectBoundingBox" id="filter-4">
            <feOffset dx="0" dy="1" in="SourceAlpha" result="shadowOffsetOuter1"></feOffset>
            <feGaussianBlur stdDeviation="3" in="shadowOffsetOuter1" result="shadowBlurOuter1"></feGaussianBlur>
            <feComposite in="shadowBlurOuter1" in2="SourceAlpha" operator="out" result="shadowBlurOuter1"></feComposite>
            <feColorMatrix values="0 0 0 0 0   0 0 0 0 0   0 0 0 0 0  0 0 0 0.25 0" type="matrix" in="shadowBlurOuter1"></feColorMatrix>
        </filter>
    </defs>
    <g id="데이터분석_차트" stroke="none" stroke-width="1" fill="none" fill-rule="evenodd">
        <g id="210128-/-Popup-/-add-data-/-5_histogram-graph-Copy-3" transform="translate(-365.000000, -578.000000)">
            <rect fill="#FFFFFF" x="0" y="0" width="1024" height="768"></rect>
            <g id="Group-5" transform="translate(285.000000, 374.000000)">
                <mask id="mask-2" fill="white">
                    <use xlink:href="#path-1"></use>
                </mask>
                <path stroke="#E2E2E2" d="M711.5,0.5 L711.5,363 C711.5,363.966498 711.108249,364.841498 710.474874,365.474874 C709.841498,366.108249 708.966498,366.5 708,366.5 L708,366.5 L4,366.5 C3.03350169,366.5 2.15850169,366.108249 1.52512627,365.474874 C0.891750844,364.841498 0.5,363.966498 0.5,363 L0.5,363 L0.5,0.5 L711.5,0.5 Z"></path>
            </g>
            <g id="parameter-/-list-copy" transform="translate(343.000000, 365.000000)">
                <g id="list_parameter_bg" fill-rule="nonzero">
                    <g id="Combined-Shape">
                        <use fill="black" fill-opacity="1" filter="url(#filter-4)" xlink:href="#path-3"></use>
                        <path stroke="#E2E2E2" stroke-width="1" d="M103.798371,0.500000013 C104.159843,0.499951891 104.521332,0.629933668 104.807439,0.889961396 L104.807439,0.889961396 L113.561738,8.84599804 L202,8.84689556 C203.518783,8.84689556 204.893783,9.46250403 205.889087,10.4578083 C206.884392,11.4531125 207.5,12.8281125 207.5,14.3468956 L207.5,14.3468956 L207.5,250.346896 C207.5,251.865679 206.884392,253.240679 205.889087,254.235983 C204.893783,255.231287 203.518783,255.846896 202,255.846896 L202,255.846896 L6,255.846896 C4.48121694,255.846896 3.10621694,255.231287 2.1109127,254.235983 C1.11560847,253.240679 0.5,251.865679 0.5,250.346896 L0.5,250.346896 L0.5,14.3468956 C0.5,12.8281125 1.11560847,11.4531125 2.1109127,10.4578083 C3.10621694,9.46250403 4.48121694,8.84689556 6.0000051,8.84689556 L6.0000051,8.84689556 L94.0393263,8.84599803 L102.789414,0.890224041 C103.075445,0.630126158 103.4369,0.500048136 103.798371,0.500000013 Z" stroke-linejoin="square" fill="#FFFFFF" fill-rule="evenodd"></path>
                    </g>
                </g>
                <g id="3" transform="translate(12.000000, 119.000000)" fill="#FFFFFF" fill-rule="nonzero" stroke="#E2E2E2">
                    <g id="btn-/-check-box-/-select" transform="translate(10.000000, 94.000000)">
                        <rect id="Rectangle" x="0.5" y="0.5" width="15" height="15" rx="2"></rect>
                    </g>
                </g>
                <g id="3-copy-2" transform="translate(12.000000, 214.000000)"></g>
            </g>
        </g>
    </g>
</svg>