<svg xmlns="http://www.w3.org/2000/svg" xmlns:xlink="http://www.w3.org/1999/xlink" width="75" height="72" viewBox="0 0 75 72"><defs><path id="gacpg0zu2c" d="M0 0.003L62.141 0.003 62.141 79.561 0 79.561z"/><path id="lrf52jwyhe" d="M0.055 0.062L13.555 0.062 13.555 7.052 0.055 7.052z"/><path id="jztoakfo8g" d="M0 0H18.68V24.427H0z"/><path id="5ii6te2idi" d="M0 0.002L62.865 0.002 62.865 78.65 0 78.65z"/><circle id="b5yt8a81va" cx="34.485" cy="34.485" r="34.485"/></defs><g fill="none" fill-rule="evenodd"><g><g><g><g transform="translate(-18 -359) translate(0 341) translate(18 18) translate(5.03 2)"><mask id="ye2t88b4zb" fill="#fff"><use xlink:href="#b5yt8a81va"/></mask><use fill="#FFC5BB" xlink:href="#b5yt8a81va"/><g mask="url(#ye2t88b4zb)"><g><path fill="#FFF" d="M17.72 34.477c2.155 1.024 4.42 1.48 6.837 2.003 1.068.231 4.966 1.003 3.616 2.958-.49.707-1.768.77-2.535.878-1.67.235-3.353.218-4.99-.029-1.835-.277-3.596-.837-5.262-1.602.805-1.004 1.729-2.45 2.334-4.208" transform="translate(-3.802 10.318)"/><path fill="#0087C6" d="M11.42 29.034l.05.075c.45.655.909 1.234 1.388 1.769.685.764 1.42 1.427 2.258 2.041.414.304.853.595 1.325.88.421.255.849.474 1.279.678-.605 1.758-1.53 3.204-2.334 4.208-.805-.369-1.59-.783-2.347-1.242-2.156-1.31-4.539-2.962-5.992-5.095-.708-1.038-.873-2.454-.244-3.653.131-.25.283-.48.44-.67.57-.69 1.424-1.16 2.275-.953.169.041.316.112.455.195.65.384 1.016 1.15 1.446 1.767M58.971 47.981c.247.592.451 1.192.594 1.796.274 1.16-.038 2.434-.962 3.213-.192.163-.396.3-.59.402-3.069 1.593-4.56-2.683-4.338-5.03" transform="translate(-3.802 10.318)"/><path fill="#FFF" d="M52.185 35.451c.483-.238 1.08-.362 1.604-.32 3.082.251 5.88 3.355 7.18 5.97.158.317.264.646.333.981-1.531-.206-3.016-.06-4.54.845-.02-.326-.115-.67-.313-1.038-.391-.728-1.028-1.246-1.703-1.72-.523-.368-.95-.777-1.414-1.216-.71-.67-2.716-2.727-1.147-3.502" transform="translate(-3.802 10.318)"/><path fill="#0087C6" d="M53.798 49.453c-.1-.939.671-2.114 1.116-2.886.71-1.233 1.935-2.283 1.849-3.64 1.523-.905 3.008-1.051 4.539-.845.418 2.022-.642 4.301-1.753 5.883-.34.486-.673 1.021-1.044 1.482" transform="translate(-3.802 10.318)"/><path fill="#FFF" d="M34.239 55.034c.768.158 2.512 1.164 2.354 1.933l-2.388 11.649-4.033-.827 2.389-11.648c.158-.77.91-1.264 1.678-1.107M42.634 55.064c-.784 0-2.694.635-2.694 1.42v11.891h4.116v-11.89c0-.786-.638-1.421-1.422-1.421M30.34 2.823c.534.156 1.068.388 1.618.692.451.25.875.57 1.272.9 1.275 1.06 2.916 4.397 1.162 5.732-1.27.965-2.443-1.446-3.155-2.143-1.595-1.565-3.878.155-5.112 1.447-.995 1.046-2.643 1.085-3.683.086-1.04-1-1.088-2.65-.103-3.702 1.221-1.305 2.721-2.418 4.448-2.942 1.283-.39 2.418-.4 3.552-.07" transform="translate(-3.802 10.318)"/><path fill="#673101" d="M26.506 7.721c-.203-.055-.405-.025-.592.037.228-.136.405-.356.476-.635.146-.563-.19-1.134-.745-1.284-.26-.067-.518-.022-.74.094.195-.139.352-.335.415-.582.146-.563-.189-1.137-.747-1.283-.05-.016-.1-.006-.153-.01-1.137.8-1.907 1.593-2.081 1.776-.985 1.05-.937 2.704.105 3.703 1.039.998 2.686.959 3.68-.086.294-.306.69-.65 1.12-.965-.092-.36-.356-.667-.738-.765" transform="translate(-3.802 10.318)"/><path fill="#FFF" d="M45.794 2.823c-.534.156-1.069.388-1.618.692-.452.25-.876.57-1.272.9-1.275 1.06-2.916 4.397-1.162 5.732 1.27.965 2.443-1.446 3.154-2.143 1.596-1.565 3.878.155 5.113 1.447.994 1.046 2.642 1.085 3.682.086 1.04-1 1.088-2.65.104-3.702-1.222-1.305-2.721-2.418-4.448-2.942-1.284-.39-2.419-.4-3.553-.07" transform="translate(-3.802 10.318)"/><path fill="#673101" d="M49.628 7.721c.202-.055.404-.025.591.037-.227-.136-.405-.356-.476-.635-.146-.563.191-1.134.746-1.284.26-.067.517-.022.74.094-.195-.139-.352-.335-.416-.582-.145-.563.19-1.137.748-1.283.05-.016.1-.006.152-.01 1.137.8 1.907 1.593 2.082 1.776.984 1.05.936 2.704-.106 3.703-1.038.998-2.686.959-3.68-.086-.293-.306-.689-.65-1.118-.965.09-.36.355-.667.737-.765" transform="translate(-3.802 10.318)"/><path fill="#0099ED" d="M37.353 63.136c-.662 0-1.328-.027-1.982-.08-6.799-.555-11.437-3.307-13.414-7.958-1.834-4.313-1.42-8.929-.853-12.469.115-.72.313-1.472.522-2.267.43-1.64.876-3.335.585-4.785-.062-.308-.168-.645-.334-1.06l-.203-.512h.006c-.068-.155-.137-.309-.206-.462-.197-.438-.4-.891-.552-1.33-1.302-3.75-1.514-7.634-.628-11.542.859-3.792 2.68-7.029 4.998-8.878 3.752-2.996 8.137-4.713 12.03-4.713h1.458c3.924 0 8.31 1.717 12.062 4.713 2.317 1.85 4.14 5.086 4.998 8.878.927 4.094.671 8.058-.782 12.12-.175.489-.314.917-.428 1.32l-.078.333c-.152.583-.249 1.115-.296 1.626-.06.653.091 1.303.25 1.991.068.292.135.584.188.878.147.829.33 1.673.508 2.488.366 1.679.745 3.415.837 5.174.171 3.28-.623 7.838-2.785 10.627-2.527 3.262-7.08 5.386-12.491 5.828-.64.052-1.334.08-2.008.08l-1.325-.001-.077-.372v.373z" transform="translate(-3.802 10.318)"/><path fill="#004B70" d="M37.43 6.705h-.01l-.08.001h-.018c-3.976 0-8.446 1.747-12.263 4.794-2.383 1.903-4.252 5.215-5.13 9.09-.9 3.975-.685 7.928.64 11.746.157.452.364.912.563 1.357l.213.477.186.485c.157.393.256.709.314.995.274 1.366-.16 3.02-.58 4.618-.212.804-.411 1.564-.53 2.303-.574 3.589-.993 8.273.878 12.673 2.035 4.787 6.782 7.617 13.727 8.184.662.054 1.34.081 2.013.081h1.401c.684 0 1.39-.028 2.039-.08 5.516-.451 10.165-2.627 12.756-5.972 2.221-2.866 3.038-7.527 2.862-10.875-.093-1.79-.475-3.542-.844-5.236-.177-.812-.36-1.651-.506-2.472-.054-.307-.123-.607-.19-.897-.153-.658-.297-1.28-.243-1.874.045-.49.138-1.003.285-1.565l.153-.586c.096-.319.208-.658.343-1.036 1.478-4.13 1.738-8.162.795-12.327-.877-3.874-2.747-7.186-5.13-9.089-3.816-3.046-8.286-4.794-12.262-4.794h-.034l-1.348-.001zm0 .746l1.35.002h.032c4.195 0 8.505 2.003 11.797 4.63 2.569 2.052 4.151 5.51 4.867 8.67.93 4.108.65 7.947-.77 11.912-.197.553-.38 1.114-.527 1.685h.011c-.144.553-.253 1.115-.305 1.686-.092 1.004.266 1.976.441 2.968.449 2.533 1.205 5.037 1.34 7.616.173 3.307-.655 7.732-2.707 10.38-2.836 3.66-7.767 5.32-12.227 5.684-.649.053-1.326.079-1.977.079l-1.325-.002-.077.002c-.65 0-1.303-.026-1.952-.08-5.41-.441-10.835-2.401-13.1-7.73-1.663-3.91-1.485-8.159-.829-12.264.354-2.208 1.557-4.934 1.105-7.186-.074-.37-.202-.747-.353-1.125h.017c-.305-.772-.71-1.55-.967-2.287-1.27-3.661-1.482-7.516-.616-11.337.715-3.16 2.298-6.62 4.867-8.67 3.292-2.628 7.602-4.631 11.797-4.631h.031l.077-.002z" transform="translate(-3.802 10.318)"/><path fill="#0099ED" d="M38.78 7.453l-.076-.002.076.002z" transform="translate(-3.802 10.318)"/><path fill="#FFF" d="M38.312 36.977c-1.53 0-3.15-.03-5.254-.096-5.204-.165-9.337-2.511-11.056-6.275-.71-1.554-.938-3.465-.642-5.38.3-1.946.562-2.792 1.61-4.29.281-.404.306-1.032.33-1.64.013-.343.026-.699.089-1.015.237-1.207.64-2.322 1.199-3.314 1.21-2.153 3.25-3.886 5.899-5.011.937-.398 1.951-.724 3.017-.97 1.274-.294 2.836-.456 4.399-.456.851 0 1.648.048 2.37.143 1.629.214 3.267.658 4.737 1.283 2.23.947 5.172 2.585 6.536 5.011.558.992.962 2.107 1.199 3.314.062.316.076.672.089 1.016.024.607.048 1.235.33 1.639 1.047 1.497 1.309 2.343 1.61 4.29.295 1.915.067 3.826-.642 5.38-1.72 3.764-5.852 6.11-11.057 6.275l-1.776.052c-.958.03-1.935.044-2.987.044" transform="translate(-3.802 10.318)"/><path fill="#004B70" d="M37.903 8.22c-1.586 0-3.173.164-4.47.463-1.085.25-2.117.582-3.068.986-2.712 1.152-4.804 2.932-6.049 5.146-.575 1.023-.99 2.169-1.233 3.406-.066.34-.08.708-.094 1.064-.022.562-.044 1.144-.274 1.472-1.075 1.538-1.358 2.453-1.662 4.421-.305 1.975-.069 3.948.666 5.557 1.769 3.874 6.004 6.288 11.33 6.457 2.101.066 3.724.096 5.26.096 1.055 0 2.036-.014 3-.044l.803-.023.973-.03c5.325-.168 9.56-2.582 11.33-6.456.734-1.609.97-3.582.666-5.557-.304-1.968-.587-2.883-1.662-4.421-.23-.328-.253-.91-.274-1.472-.014-.356-.028-.724-.095-1.064-.243-1.238-.657-2.384-1.233-3.406-1.407-2.504-4.412-4.18-6.685-5.146-1.498-.636-3.164-1.087-4.82-1.305-.733-.096-1.544-.145-2.41-.145m0 .622c.819 0 1.615.046 2.33.14 1.621.213 3.21.646 4.656 1.26 2.362 1.004 5.115 2.616 6.387 4.878.563 1.001.944 2.097 1.165 3.222.166.848-.042 2.043.469 2.772 1.035 1.48 1.272 2.315 1.557 4.16.268 1.737.118 3.593-.617 5.203-1.914 4.192-6.545 5.96-10.784 6.094-.585.019-1.183.034-1.776.053-.997.03-1.99.043-2.98.043-1.744 0-3.484-.04-5.241-.096-4.238-.134-8.87-1.902-10.783-6.094-.735-1.61-.885-3.466-.617-5.203.285-1.845.522-2.68 1.557-4.16.51-.73.303-1.924.47-2.772.22-1.125.601-2.22 1.163-3.222 1.273-2.262 3.389-3.874 5.75-4.877.957-.407 1.953-.72 2.966-.953 1.278-.295 2.84-.448 4.329-.448" transform="translate(-3.802 10.318)"/><path fill="#FFB9B5" d="M31.66 25.924c0 2.47-1.987 4.471-4.437 4.471s-4.436-2.002-4.436-4.47 1.987-4.47 4.436-4.47c2.45 0 4.438 2.002 4.438 4.47M53.346 25.924c0 2.47-1.987 4.471-4.438 4.471-2.45 0-4.435-2.002-4.435-4.47s1.986-4.47 4.435-4.47c2.45 0 4.438 2.002 4.438 4.47" transform="translate(-3.802 10.318)"/><path fill="#000" d="M38.832 24.489c0 .322-.34.582-.764.582-.425 0-.767-.26-.767-.582 0-.32.342-.583.767-.583s.764.263.764.583M42.466 23.794c-.573 0-1.038-.432-1.038-.965v-.136c0-.533.465-.966 1.038-.966.574 0 1.04.433 1.04.966v.136c0 .533-.466.965-1.04.965M33.667 23.794c-.575 0-1.04-.432-1.04-.965v-.136c0-.533.465-.966 1.04-.966.573 0 1.039.433 1.039.966v.136c0 .533-.466.965-1.04.965" transform="translate(-3.802 10.318)"/><path fill="#231815" d="M40.733 27.963c-.987 0-1.972-.307-2.666-.8-1.243.882-3.42 1.168-4.862.167-.327-.227-.882-.68-.931-1.168-.02-.202.045-.392.185-.54.146-.152.388-.158.54-.011.141.134.157.35.044.503.046.11.257.351.597.588 1.221.847 3.212.533 4.175-.312.144-.127.36-.127.504 0 .963.845 2.953 1.16 4.174.312.34-.237.552-.477.598-.589-.113-.152-.097-.368.044-.503.152-.145.394-.14.54.013.14.147.206.338.185.539-.05.49-.605.942-.931 1.168-.637.442-1.418.633-2.196.633z" transform="translate(-3.802 10.318)"/><path fill="#A00" d="M9.064 4.496c-1.845-.633-3.714-.284-5.262.982-1.548 1.266-2.59 3.298-2.934 5.721-.345 2.422.05 4.947 1.111 7.107s2.662 3.698 4.507 4.331c3.809 1.305 7.485-1.702 8.196-6.703.71-5.003-1.81-10.134-5.618-11.438" transform="translate(-3.802 10.318)"/><path fill="#A00" d="M9.829 33.003c-.555.054-1.048-.352-1.102-.906L7.16 15.96c-.054-.555.351-1.048.906-1.102.555-.054 1.048.352 1.102.907l1.568 16.136c.054.554-.351 1.047-.906 1.101" transform="translate(-3.802 10.318)"/><path fill="red" d="M10.466 32.941c-.443.043-.845-.371-.9-.926L7.999 15.88c-.054-.555.261-1.039.704-1.082.443-.043.846.372.9.926L11.17 31.86c.054.555-.261 1.04-.704 1.082" transform="translate(-3.802 10.318)"/><path fill="#FFF" d="M7.951 21.632c-3.447-1.181-5.72-5.809-5.077-10.335.644-4.527 3.96-7.24 7.406-6.058 3.447 1.182 5.72 5.81 5.077 10.336-.643 4.527-3.959 7.239-7.406 6.057" transform="translate(-3.802 10.318)"/><path fill="red" d="M13.792 9.612c-.821-1.672-2.099-2.97-3.636-3.498-1.49-.51-2.997-.229-4.247.793S3.819 9.57 3.54 11.525c-.278 1.956.04 3.993.897 5.737.857 1.744 2.149 2.985 3.639 3.496 1.489.51 2.997.229 4.247-.793 1.25-1.023 2.09-2.663 2.369-4.618.286-2.019-.08-4.064-.9-5.735M3.32 18.176c-1.061-2.16-1.456-4.685-1.111-7.107.344-2.423 1.386-4.455 2.934-5.721 1.548-1.266 3.417-1.615 5.262-.983 3.808 1.304 6.328 6.436 5.618 11.438-.71 5.002-4.387 8.009-8.196 6.703-1.845-.632-3.446-2.17-4.507-4.33" transform="translate(-3.802 10.318)"/><path fill="red" d="M6.658 20.951L5.065 18.991 11.803 5.894 13.361 7.922z" transform="translate(-3.802 10.318)"/><path fill="#A00" d="M13.792 9.612c-.205-.417-.438-.81-.696-1.174l-.372.723c.1.171.196.346.285.527.821 1.671 1.186 3.716.9 5.735-.279 1.956-1.12 3.596-2.37 4.618-.608.498-1.28.817-1.979.957.981-.008 1.93-.352 2.763-1.033 1.25-1.023 2.09-2.662 2.369-4.618.286-2.019-.08-4.064-.9-5.735M11.373 6.73c-.384-.257-.789-.47-1.217-.616-.763-.262-1.532-.312-2.268-.165.49-.004.989.07 1.485.241.428.147.834.359 1.217.617L4.84 17.985c.134.217.275.424.423.621l6.11-11.875z" transform="translate(-3.802 10.318)"/><path fill="#FFF" d="M13.908 15.423c.287-2.019-.078-4.063-.9-5.735-.088-.181-.185-.356-.284-.527L7.017 20.25c.339.211.693.382 1.059.507.496.17.994.244 1.484.24.7-.14 1.37-.46 1.98-.957 1.25-1.022 2.09-2.662 2.368-4.618M9.373 6.19c-.496-.17-.994-.244-1.485-.24-.7.14-1.37.46-1.98.957C4.66 7.93 3.819 9.57 3.54 11.525c-.278 1.956.04 3.993.898 5.737.124.253.258.493.401.723L10.59 6.807c-.383-.258-.789-.47-1.217-.617" transform="translate(-3.802 10.318)"/><path fill="#0087C6" d="M10.394 34.962c-2.215 0-4.184-1.878-4.389-4.187-.126-1.42.328-2.884 1.185-3.82.656-.716 1.506-1.095 2.458-1.095.085 0 .172.003.26.01.975.067 1.857.58 2.552 1.483.955 1.24 1.428 3.117 1.151 4.566-.243 1.269-1.288 2.772-2.553 2.988-.22.037-.443.055-.664.055" transform="translate(-3.802 10.318)"/><path fill="#004B70" d="M9.648 25.55c-1.042 0-1.972.412-2.687 1.194-.914 1-1.4 2.555-1.266 4.059.22 2.465 2.327 4.47 4.698 4.47.239 0 .48-.02.717-.06 1.56-.265 2.58-2.052 2.807-3.235.296-1.554-.19-3.489-1.21-4.815-.75-.975-1.711-1.53-2.777-1.604-.095-.007-.19-.01-.282-.01m0 .622c.078 0 .158.003.238.009 2.477.173 3.834 3.514 3.42 5.68-.206 1.077-1.12 2.539-2.3 2.74-.207.035-.412.051-.613.051-2.107 0-3.894-1.834-4.078-3.904-.19-2.131 1.01-4.576 3.333-4.576" transform="translate(-3.802 10.318)"/><g transform="translate(-3.802 10.318) translate(0 1.838)"><mask id="5vi2alqord" fill="#fff"><use xlink:href="#gacpg0zu2c"/></mask><path fill="#000" d="M55.988 41.528c-.078-.407-.161-.812-.247-1.213.018.03.034.06.05.09.137.254.211.493.226.732.009.13-.002.26-.029.39M47.416.004c-.618 0-1.217.087-1.83.266-.578.167-1.157.415-1.772.754-.429.238-.87.549-1.387.98-.677.561-1.482 1.704-1.905 2.968-.583-.069-1.156-.103-1.711-.103h-.032l-1.348-.001-.092.001h-.004c-.566 0-1.141.035-1.724.103-.422-1.264-1.227-2.407-1.904-2.969-.518-.43-.959-.742-1.388-.979-.614-.34-1.193-.586-1.77-.755-.614-.178-1.213-.265-1.832-.265-.695 0-1.397.11-2.147.337-1.606.487-3.138 1.47-4.556 2.921-.096.095-.174.176-.216.22-.463.494-.763 1.103-.87 1.765-.18 1.1.193 2.219.998 2.99.625.602 1.447.934 2.314.934.925 0 1.787-.37 2.426-1.043.282-.29.639-.598 1.02-.878l.397-.293-.007-.03c.628-.419 1.202-.637 1.678-.637.227 0 .429.049.617.15-1.852.81-3.67 1.912-5.312 3.223-2.382 1.902-4.252 5.215-5.13 9.089-.9 3.976-.685 7.928.64 11.746.157.454.364.914.564 1.358l.21.474.188.488c.058.145.108.28.151.407-1.205-.307-2.445-.691-3.642-1.26-.479-.227-.864-.43-1.212-.642-.46-.278-.876-.554-1.27-.843-.516-.378-.988-.773-1.434-1.203.025-1.974-.979-4.345-2.79-5.278l-.24-2.479c2.891-.748 5.128-3.644 5.668-7.449.759-5.34-1.985-10.835-6.115-12.25-.662-.226-1.34-.341-2.015-.341-.423 0-.847.045-1.263.135l-.107-.001c-1.414 0-2.774.501-3.933 1.449C1.636 4.447.5 6.647.13 9.255c-.366 2.57.053 5.249 1.18 7.542 1.149 2.339 2.902 4.01 4.935 4.708.295.101.598.18.905.237l.253 2.596c-1.449 1.089-1.971 3.058-1.83 4.637.146 1.651 1.184 3.216 2.655 4.018 1.133 1.073 2.543 2.108 4.425 3.25.764.464 1.58.896 2.423 1.283 1.804.827 3.641 1.386 5.462 1.66.168.026.338.05.514.07-.128.51-.24.998-.316 1.476-.574 3.59-.993 8.273.878 12.674 1.527 3.592 4.509 6.052 8.868 7.32l-.726 3.542-.152.706-1.206 5.872c-.563-.267-1.349-.508-2.354-.508-.431 0-.88.044-1.333.132-2.054.445-3.83 1.81-4.767 3.652-.531 1.045-.832 3.03.164 4.171.972 1.114 2.32 1.268 3.631 1.268.191 0 .382-.003.57-.006.174-.003.345-.006.512-.006h5.475c1.134 0 2.843-.876 2.875-2.2l.284-3.23 1.325-6.46.157-.731 1.086-5.293c.443.024.889.036 1.331.036h1.401c.141 0 .287-.002.439-.005V77.31c0 1.346 1.73 2.239 2.875 2.239h5.766c.167 0 .338.003.512.006.188.003.378.006.57.006 1.311 0 2.659-.154 3.63-1.267.996-1.142.696-3.127.165-4.172-.937-1.843-2.701-3.204-4.72-3.64l-.088-.021c-.528-.104-1.012-.153-1.465-.153-.668 0-1.209.106-1.635.251V60.92c2.77-.714 6.345-2.202 8.746-5.301.707-.913 1.3-2.038 1.77-3.354.438.252.915.382 1.414.382.527 0 1.073-.145 1.623-.431.246-.127.498-.298.729-.493 1.1-.93 1.563-2.445 1.206-3.956-.071-.304-.165-.622-.288-.982.052-.078.105-.154.158-.23.745-1.06 2.419-3.816 1.872-6.462-.088-.425-.217-.805-.395-1.163-1.307-2.628-3.839-5.43-6.736-6.192l.01-.039.152-.582c.096-.319.21-.66.345-1.04 1.478-4.129 1.738-8.161.795-12.327-.877-3.873-2.747-7.186-5.13-9.088-1.642-1.311-3.46-2.412-5.312-3.223.188-.101.39-.15.618-.15.474 0 1.047.217 1.672.633l-.007.03.403.297c.382.28.738.587 1.005.863.654.688 1.516 1.058 2.44 1.058.867 0 1.69-.332 2.315-.933.804-.772 1.177-1.89.998-2.991-.107-.662-.407-1.27-.866-1.761-.045-.047-.124-.128-.227-.23C52.703 1.811 51.17.828 49.563.34c-.749-.227-1.451-.337-2.147-.337m8.162 43.74c.62-.848 1.247-1.67 1.185-2.654-.021-.326-.116-.67-.314-1.038-.391-.729-1.028-1.247-1.703-1.72-.08-.057-.154-.116-.23-.174.377 1.857.852 3.705 1.062 5.586M47.416.749c.617 0 1.253.1 1.93.306 1.632.495 3.058 1.518 4.242 2.73l.207.21c.37.395.593.874.674 1.371.135.829-.128 1.708-.778 2.332-.504.485-1.15.725-1.797.725-.687 0-1.373-.271-1.885-.81l-.019-.02c-.291-.3-.678-.635-1.1-.946.003-.011.01-.021.013-.033-.767-.59-1.666-1.072-2.523-1.072-.524 0-1.031.18-1.484.623-.134.132-.285.325-.45.545 2.236.838 4.353 2.091 6.163 3.536 2.569 2.05 4.151 5.509 4.867 8.67.93 4.107.65 7.946-.77 11.91-.198.553-.38 1.115-.527 1.685h.011c-.07.269-.13.54-.182.812 2.995.376 5.691 3.387 6.961 5.94.158.317.264.646.333.981.418 2.021-.642 4.3-1.753 5.883-.125.18-.25.367-.376.553.153.417.292.836.392 1.258.274 1.161-.038 2.434-.962 3.214-.192.163-.396.3-.59.401-.463.24-.89.347-1.28.347-.72 0-1.316-.363-1.786-.921-.448 1.57-1.104 3.041-1.988 4.183-2.142 2.764-5.477 4.385-8.903 5.171V71.86s.655-.806 2.382-.806c.38 0 .81.04 1.296.134l.1.023c1.804.39 3.374 1.604 4.211 3.25.453.89.652 2.525-.061 3.342-.786.9-1.944 1.011-3.069 1.011-.369 0-.734-.012-1.081-.012h-5.766c-.824 0-2.129-.668-2.129-1.492V60.893c-.396.019-.794.031-1.184.031h-1.402c-.644 0-1.29-.025-1.932-.077l-1.216 5.93h-.007l-1.484 7.233-.29 3.3c0 .824-1.305 1.492-2.129 1.492H24.82c-.348 0-.713.012-1.082.012-1.125 0-2.283-.111-3.068-1.011-.713-.817-.515-2.451-.062-3.343.837-1.645 2.44-2.866 4.245-3.257.431-.084.828-.119 1.19-.119 1.91 0 2.866.98 2.866.98l1.425-6.94.008.001 1.012-4.935c-3.9-.991-7.36-3.092-9.054-7.076-1.662-3.91-1.484-8.158-.827-12.264.113-.709.314-1.472.52-2.255-.45-.033-.9-.079-1.345-.146-1.834-.277-3.596-.838-5.261-1.602-.806-.37-1.591-.782-2.348-1.242-1.477-.897-3.054-1.96-4.372-3.224-1.284-.661-2.222-2.005-2.352-3.472-.144-1.625.52-3.429 1.873-4.195l-.353-3.633c-.444-.037-.895-.127-1.349-.282-1.845-.633-3.446-2.17-4.506-4.33C.918 14.306.523 11.782.868 9.36c.344-2.423 1.386-4.455 2.934-5.721 1.043-.853 2.232-1.28 3.46-1.28.06 0 .12 0 .18.003.39-.091.788-.138 1.19-.138.585 0 1.18.099 1.773.302 3.808 1.304 6.328 6.435 5.618 11.438-.555 3.903-2.918 6.58-5.738 6.953l.349 3.587c1.846.66 2.88 3.164 2.73 5.07.54.545 1.116 1.04 1.752 1.506.414.304.854.595 1.325.88.422.255.849.474 1.279.678 1.58.75 3.218 1.195 4.932 1.585-.016-.189-.038-.376-.075-.56-.074-.37-.202-.746-.353-1.124h.017c-.305-.772-.71-1.55-.967-2.288-1.27-3.66-1.482-7.515-.616-11.336.715-3.16 2.298-6.62 4.867-8.67 1.81-1.445 3.927-2.698 6.163-3.536-.165-.22-.316-.413-.45-.545-.453-.443-.961-.623-1.484-.623-.857 0-1.756.482-2.524 1.072.004.012.01.022.013.033-.42.31-.808.645-1.1.947l-.018.019c-.513.539-1.198.81-1.885.81-.646 0-1.293-.24-1.797-.725-.65-.624-.913-1.503-.778-2.332.08-.497.304-.976.674-1.37.04-.041.112-.117.21-.213 1.182-1.21 2.607-2.234 4.238-2.728.678-.206 1.314-.306 1.93-.306.551 0 1.087.08 1.622.236.535.156 1.07.388 1.619.692.452.25.875.57 1.272.9.724.6 1.564 1.937 1.835 3.224.752-.12 1.507-.187 2.258-.187h1.487c.752 0 1.506.066 2.258.187.271-1.287 1.112-2.623 1.836-3.225.396-.33.82-.65 1.271-.9.55-.303 1.085-.535 1.62-.691.534-.156 1.07-.236 1.621-.236l39.533 28.16" mask="url(#5vi2alqord)"/></g><path fill="#EDEDED" d="M41.724 1.12c-.362-.035-.725-.052-1.084-.105-1.032-.151-2.031-.52-3.09-.412-.909.093-1.78.409-2.692.485-.59.05-1.18-.015-1.749.2-.819.308-1.271 1.008-1.431 1.844-.228 1.188.033 2.546.446 3.672l5.917.146 5.913-.146c.338-.008.524-2.714.517-2.963-.036-1.294-.674-2.235-1.935-2.582-.268-.073-.54-.111-.812-.139" transform="translate(-3.802 10.318)"/><g transform="translate(-3.802 10.318) translate(31.227 .21)"><mask id="kopawvu3yf" fill="#fff"><use xlink:href="#lrf52jwyhe"/></mask><path fill="#000" d="M1.118 6.29l5.703.14 5.772-.143c.183-.451.35-2.3.34-2.646-.024-.838-.339-1.915-1.707-2.29-.212-.06-.447-.1-.76-.13-.124-.012-.248-.022-.372-.032-.243-.02-.486-.04-.727-.074-.33-.05-.657-.12-.984-.19C7.688.775 7.038.636 6.355.703c-.42.043-.83.136-1.263.233-.464.104-.942.212-1.434.253-.178.015-.356.02-.533.025-.4.012-.78.022-1.133.156C1.167 1.68.864 2.418.756 2.98c-.234 1.221.097 2.53.362 3.31m5.703.762L.677 6.901l-.073-.199c-.293-.8-.742-2.36-.459-3.838C.34 1.847.919 1.11 1.772.788c.452-.171.901-.183 1.336-.195.166-.005.331-.01.497-.023.45-.039.887-.137 1.35-.24.432-.098.879-.199 1.337-.245.776-.083 1.51.079 2.221.232.314.067.628.135.945.181.227.034.457.053.686.071.128.01.255.02.383.033.35.034.616.08.865.148 1.353.372 2.121 1.393 2.163 2.873 0 .025-.107 2.696-.539 3.152-.099.105-.208.13-.281.131l-5.914.146" mask="url(#kopawvu3yf)"/></g><path fill="#000" d="M38.04 3.554c-6.087 0-5.935 1.99-5.935 1.99H43.976s.152-1.99-5.936-1.99" transform="translate(-3.802 10.318)"/><path fill="#000" d="M32.528 5.232h11.025c-.04-.062-.095-.131-.168-.205-.433-.434-1.703-1.162-5.345-1.162-3.642 0-4.911.728-5.344 1.162-.074.074-.128.143-.168.205zm11.736.623H31.817l-.023-.288c-.003-.046-.02-.461.408-.924.592-.64 2.085-1.4 5.838-1.4s5.247.76 5.839 1.4c.429.463.41.878.407.924l-.022.288z" transform="translate(-3.802 10.318)"/><path fill="#EDCC00" d="M38.04 4.366c-6.469 0-6.307 1.99-6.307 1.99h12.615s.161-1.99-6.308-1.99" transform="translate(-3.802 10.318)"/><path fill="#000" d="M32.168 6.045h11.748c-.324-.474-1.513-1.368-5.876-1.368-4.347 0-5.543.888-5.872 1.368zm12.467.622H31.446l-.023-.286c-.004-.044-.023-.438.388-.885.607-.657 2.18-1.441 6.23-1.441 4.049 0 5.622.784 6.228 1.441.412.447.392.841.389.885l-.023.286z" transform="translate(-3.802 10.318)"/><path fill="#000" d="M38.015 5.544c-10.828 0-6.098 2.544-6.098 2.544l6.136-.64 6.136.64s4.09-2.544-6.174-2.544" transform="translate(-3.802 10.318)"/><path fill="#000" d="M38.015 5.855c-6.23 0-6.766.87-6.81 1.045-.06.239.399.644.778.868l6.07-.633.032.003 6.024.628c.253-.181.638-.547.564-.805-.075-.26-.776-1.106-6.658-1.106zm6.248 2.553l-6.21-.648-6.2.648-.084-.046c-.141-.077-1.38-.77-1.167-1.614.164-.65 1.111-1.516 7.413-1.516 6.105 0 7.065.89 7.256 1.559.234.817-.799 1.487-.917 1.561l-.091.056z" transform="translate(-3.802 10.318)"/><path fill="#EDCC00" d="M37.208 2.718s-1.063-.43-1.255-.267c-.192.164.535 1.407 1.255 1.411.192.019.047.504.047.504h1.608l-.129-.616s1.474-.993 1.19-1.299c-.284-.305-1.195.267-1.374.29 0 0-.018-.594-.08-.764-.025-.065-.055-.13-.107-.178-.185-.17-.595-.127-.803-.033-.34.154-.352.637-.352.952" transform="translate(-3.802 10.318)"/><path fill="#000" d="M37.618 4.055h.862l-.05-.242c-.026-.123.025-.25.13-.321.406-.274.798-.6.984-.81-.19.051-.478.182-.593.234-.18.082-.27.122-.36.134-.087.012-.175-.014-.243-.071-.067-.057-.107-.14-.11-.228-.007-.284-.036-.594-.06-.665-.017-.046-.026-.059-.029-.062-.047-.041-.3-.046-.461.026-.17.076-.17.49-.17.668 0 .103-.05.2-.136.257-.085.058-.194.07-.29.031-.276-.11-.575-.206-.78-.252.164.313.556.796.898.797.15.013.256.077.324.179.063.092.084.208.084.325m1.246.622h-1.61c-.097 0-.19-.047-.248-.125-.06-.078-.077-.18-.05-.275.012-.04.022-.084.03-.126-.632-.137-1.161-.893-1.315-1.314-.128-.35-.027-.531.08-.622.08-.07.278-.239 1.17.063.043-.304.165-.639.511-.795.29-.131.838-.192 1.142.087.103.095.154.21.187.3.035.094.058.254.074.417.428-.19.992-.396 1.316-.048.091.098.132.227.117.364-.046.41-.7.942-1.187 1.285l.087.414c.02.092-.004.187-.062.26-.06.073-.149.115-.242.115" transform="translate(-3.802 10.318)"/></g></g></g><g transform="translate(-18 -359) translate(0 341) translate(18 18) translate(0 12.777)"><mask id="xhvrnunrlh" fill="#fff"><use xlink:href="#jztoakfo8g"/></mask><g mask="url(#xhvrnunrlh)"><g><path fill="#A00" d="M9.17 2.893c-1.867-.625-3.758-.28-5.324.971C2.28 5.116 1.226 7.124.878 9.52c-.349 2.394.05 4.89 1.124 7.025 1.074 2.136 2.693 3.656 4.56 4.282 3.853 1.29 7.572-1.683 8.291-6.627.719-4.945-1.831-10.018-5.684-11.307" transform="translate(1.099 1.074)"/><path fill="#A00" d="M9.943 31.074c-.56.053-1.06-.348-1.114-.896L7.242 14.227c-.054-.549.356-1.036.917-1.089.561-.054 1.06.348 1.115.896l1.586 15.951c.055.548-.355 1.036-.917 1.09" transform="translate(1.099 1.074)"/><path fill="red" d="M10.588 31.013c-.448.042-.855-.367-.91-.916l-1.587-15.95c-.054-.55.265-1.028.712-1.07.449-.043.856.367.91.915L11.3 29.943c.055.549-.264 1.027-.712 1.07" transform="translate(1.099 1.074)"/><path fill="#FFF" d="M8.044 19.833c-3.487-1.168-5.787-5.742-5.136-10.217.65-4.475 4.005-7.156 7.492-5.988 3.487 1.168 5.787 5.742 5.136 10.217-.65 4.475-4.005 7.156-7.492 5.988" transform="translate(1.099 1.074)"/><path fill="red" d="M13.952 7.95c-.83-1.652-2.123-2.936-3.677-3.457-1.507-.505-3.033-.227-4.297.784-1.264 1.01-2.115 2.631-2.397 4.565-.28 1.933.041 3.947.908 5.672.867 1.723 2.174 2.95 3.68 3.455 1.507.504 3.033.226 4.297-.784 1.264-1.01 2.115-2.632 2.397-4.565.29-1.996-.08-4.017-.91-5.67M3.358 16.417C2.285 14.28 1.886 11.785 2.235 9.39c.347-2.396 1.402-4.404 2.968-5.656 1.566-1.251 3.457-1.596 5.323-.97 3.852 1.288 6.402 6.36 5.683 11.306-.718 4.944-4.438 7.917-8.29 6.627-1.867-.626-3.486-2.146-4.56-4.281" transform="translate(1.099 1.074)"/><path fill="red" d="M6.735 19.16L5.124 17.223 11.941 4.276 13.517 6.28z" transform="translate(1.099 1.074)"/><path fill="#A00" d="M13.952 7.95c-.207-.411-.443-.8-.704-1.16l-.376.714c.1.17.198.343.288.521.831 1.653 1.2 3.675.91 5.67-.28 1.933-1.132 3.555-2.396 4.565-.616.492-1.295.808-2.002.947.992-.009 1.951-.349 2.794-1.022 1.264-1.01 2.115-2.632 2.397-4.565.29-1.996-.08-4.017-.91-5.67M11.506 5.102c-.389-.255-.798-.464-1.232-.61-.772-.258-1.55-.308-2.294-.162.496-.004 1 .07 1.502.238.433.145.843.355 1.231.61l-5.818 11.05c.136.214.28.42.43.614l6.18-11.74z" transform="translate(1.099 1.074)"/><path fill="#FFF" d="M14.07 13.695c.29-1.995-.08-4.017-.91-5.67-.09-.178-.188-.35-.288-.52L7.099 18.469c.343.208.7.376 1.07.5.503.168 1.007.242 1.502.237.708-.138 1.387-.454 2.003-.946 1.264-1.01 2.115-2.631 2.396-4.565M9.482 4.568C8.98 4.4 8.476 4.326 7.98 4.33c-.708.14-1.387.455-2.002.947C4.714 6.287 3.863 7.908 3.58 9.84c-.28 1.935.041 3.949.908 5.672.126.25.262.488.406.715l5.818-11.05c-.388-.255-.797-.465-1.23-.61" transform="translate(1.099 1.074)"/><path fill="#0087C6" d="M10.515 33.01c-2.24 0-4.232-1.856-4.44-4.139-.127-1.403.332-2.85 1.2-3.776.662-.708 1.522-1.082 2.485-1.082.086 0 .175.003.264.009.985.067 1.878.575 2.581 1.467.966 1.225 1.445 3.081 1.165 4.513-.246 1.255-1.303 2.74-2.583 2.954-.222.036-.449.055-.672.055" transform="translate(1.099 1.074)"/><path fill="#004B70" d="M9.76 23.705c-1.054 0-1.994.409-2.718 1.182-.925.988-1.416 2.525-1.28 4.012.221 2.437 2.353 4.42 4.752 4.42.241 0 .486-.02.725-.06 1.579-.263 2.61-2.029 2.84-3.199.3-1.535-.192-3.448-1.224-4.759-.76-.964-1.731-1.512-2.81-1.586-.096-.006-.191-.01-.285-.01m0 .615c.08 0 .16.003.242.009 2.505.17 3.878 3.474 3.459 5.616-.209 1.064-1.132 2.509-2.327 2.707-.209.035-.416.051-.62.051-2.131 0-3.94-1.813-4.125-3.859-.192-2.107 1.021-4.524 3.371-4.524" transform="translate(1.099 1.074)"/><g transform="translate(1.099 1.074) translate(0 .266)"><mask id="cmzte497nj" fill="#fff"><use xlink:href="#5ii6te2idi"/></mask><path fill="#000" d="M56.64 41.053c-.079-.403-.164-.803-.25-1.2.018.03.035.059.051.089.138.252.213.488.229.724.008.13-.003.258-.03.387M47.968.003c-.625 0-1.231.086-1.852.263-.584.165-1.17.41-1.792.746-.434.234-.88.542-1.403.967-.685.556-1.5 1.686-1.927 2.935-.59-.068-1.17-.102-1.731-.102h-.033l-1.364-.001-.093.001h-.003c-.573 0-1.155.035-1.744.102-.428-1.249-1.242-2.38-1.927-2.935-.524-.426-.97-.733-1.404-.967-.62-.336-1.207-.58-1.791-.747-.62-.176-1.226-.263-1.852-.263-.704 0-1.414.11-2.173.334-1.624.482-3.175 1.453-4.609 2.888-.096.094-.176.174-.219.218-.468.488-.771 1.09-.88 1.744-.18 1.088.196 2.194 1.01 2.957.633.594 1.464.922 2.341.922.936 0 1.808-.366 2.454-1.03.285-.289.647-.592 1.032-.87l.402-.289-.007-.03c.635-.413 1.216-.63 1.697-.63.23 0 .434.049.625.15-1.874.8-3.713 1.89-5.374 3.186-2.41 1.88-4.302 5.155-5.19 8.984-.91 3.931-.693 7.838.647 11.612.16.448.368.903.57 1.343.072.154.144.311.214.468l.19.483c.058.143.109.276.153.402-1.22-.303-2.474-.684-3.685-1.245-.484-.225-.874-.427-1.227-.635-.465-.275-.885-.548-1.285-.834-.521-.374-.998-.764-1.45-1.19.025-1.95-.99-4.294-2.821-5.217l-.244-2.45c2.925-.74 5.187-3.602 5.734-7.364C17.725 8.63 14.95 3.2 10.77 1.8c-.669-.223-1.355-.337-2.038-.337-.427 0-.857.045-1.277.133h-.108c-1.43 0-2.806.495-3.979 1.432C1.655 4.397.505 6.57.13 9.15c-.37 2.54.054 5.187 1.194 7.455 1.163 2.312 2.936 3.964 4.993 4.654.298.1.605.178.916.234l.255 2.567c-1.465 1.076-1.994 3.023-1.852 4.583.149 1.633 1.198 3.18 2.686 3.972 1.147 1.06 2.573 2.084 4.477 3.213.773.46 1.598.886 2.452 1.268 1.824.818 3.683 1.37 5.525 1.642.17.026.342.048.52.069-.13.503-.242.986-.32 1.459-.58 3.548-1.004 8.178.889 12.529 1.545 3.55 4.56 5.983 8.971 7.236l-.734 3.501-.155.698-1.22 5.805c-.569-.264-1.364-.503-2.38-.503-.437 0-.89.044-1.349.132-2.078.44-3.875 1.788-4.823 3.61-.537 1.033-.841 2.995.166 4.123.983 1.101 2.347 1.253 3.673 1.253.194 0 .387-.003.577-.006.176-.003.35-.006.518-.006h5.539c1.147 0 2.876-.866 2.908-2.175l.288-3.193 1.34-6.386.159-.722 1.098-5.232c.448.023.9.035 1.347.035H39.206c.142 0 .29-.002.443-.005v15.465c0 1.33 1.75 2.213 2.909 2.213h5.832c.17 0 .343.003.518.006.19.003.383.006.577.006 1.327 0 2.69-.152 3.673-1.253 1.008-1.128.704-3.09.166-4.123-.947-1.822-2.732-3.168-4.773-3.6l-.09-.02c-.535-.102-1.024-.151-1.482-.151-.677 0-1.223.105-1.655.249V60.222c2.804-.705 6.42-2.176 8.849-5.24.715-.902 1.315-2.014 1.79-3.316.443.25.925.378 1.431.378.533 0 1.085-.143 1.642-.426.248-.126.503-.294.737-.488 1.114-.918 1.581-2.416 1.22-3.91-.072-.3-.167-.614-.292-.97l.16-.227c.754-1.05 2.448-3.773 1.895-6.389-.09-.42-.22-.796-.4-1.15-1.323-2.597-3.884-5.367-6.814-6.12l.01-.039.153-.575c.098-.316.212-.653.35-1.028 1.495-4.082 1.758-8.069.803-12.186-.887-3.83-2.778-7.104-5.189-8.985-1.661-1.296-3.5-2.384-5.374-3.185.19-.101.395-.15.625-.15.48 0 1.059.216 1.692.627l-.008.03.408.293c.386.277.747.58 1.017.853.661.68 1.533 1.046 2.469 1.046.877 0 1.708-.328 2.342-.923.813-.762 1.19-1.868 1.008-2.956-.108-.654-.411-1.256-.876-1.74-.045-.047-.124-.127-.229-.228-1.426-1.427-2.977-2.4-4.602-2.882-.758-.224-1.469-.334-2.173-.334m8.257 43.24c.627-.838 1.262-1.651 1.198-2.624-.02-.322-.116-.661-.317-1.025-.396-.72-1.04-1.233-1.722-1.701-.081-.056-.157-.114-.233-.172.381 1.835.862 3.662 1.074 5.522M47.968.74c.624 0 1.268.1 1.953.303 1.651.489 3.093 1.5 4.29 2.699.097.094.17.168.21.208.374.39.6.863.682 1.355.137.819-.13 1.688-.787 2.305-.51.48-1.164.717-1.818.717-.694 0-1.389-.269-1.907-.801l-.019-.02c-.295-.297-.686-.628-1.112-.935.003-.011.01-.02.013-.032-.777-.585-1.686-1.06-2.553-1.06-.53 0-1.043.177-1.501.616-.136.13-.289.321-.456.539 2.262.828 4.405 2.066 6.235 3.495 2.599 2.027 4.2 5.446 4.924 8.57.94 4.06.657 7.855-.779 11.775-.2.546-.385 1.101-.533 1.665h.011c-.07.265-.133.533-.184.803 3.03.371 5.757 3.347 7.042 5.871.16.314.266.639.337.97.422 1.999-.65 4.252-1.773 5.816-.127.177-.254.362-.381.546.155.413.295.827.396 1.245.277 1.147-.038 2.406-.973 3.176-.194.161-.4.297-.597.397-.468.238-.9.343-1.294.343-.729 0-1.332-.36-1.808-.911-.452 1.552-1.116 3.007-2.01 4.135-2.167 2.733-5.542 4.336-9.007 5.113v11.395s.662-.797 2.41-.797c.383 0 .819.039 1.311.132l.1.022c1.826.387 3.414 1.586 4.261 3.213.458.881.659 2.496-.062 3.304-.795.89-1.966 1-3.104 1-.373 0-.743-.012-1.095-.012h-5.832c-.834 0-2.154-.66-2.154-1.475v-16.23c-.401.02-.803.032-1.198.032l-1.34-.001-.078.001c-.652 0-1.304-.025-1.954-.077l-1.231 5.863-.007-.001-1.501 7.151-.294 3.262c0 .815-1.32 1.475-2.153 1.475H25.109c-.352 0-.721.012-1.095.012-1.137 0-2.31-.11-3.103-1-.722-.808-.521-2.423-.063-3.304.847-1.627 2.469-2.833 4.294-3.22.436-.083.838-.118 1.204-.118 1.933 0 2.9.97 2.9.97l1.441-6.861h.008l1.024-4.878c-3.945-.98-7.446-3.056-9.16-6.995-1.68-3.865-1.501-8.065-.836-12.123.114-.701.318-1.455.526-2.23-.456-.032-.91-.078-1.36-.144-1.856-.274-3.638-.828-5.323-1.583-.816-.366-1.61-.774-2.375-1.228-1.494-.887-3.09-1.939-4.423-3.188-1.299-.653-2.248-1.982-2.38-3.432-.146-1.606.527-3.39 1.896-4.147l-.357-3.591c-.45-.037-.907-.126-1.365-.28-1.867-.625-3.486-2.145-4.56-4.28C.93 14.144.53 11.648.879 9.253 1.226 6.858 2.28 4.85 3.846 3.598c1.055-.843 2.258-1.266 3.5-1.266.061 0 .122.002.183.004.395-.09.797-.136 1.203-.136.593 0 1.194.097 1.794.298 3.852 1.29 6.402 6.362 5.684 11.307-.562 3.858-2.952 6.505-5.805 6.873l.353 3.547c1.867.652 2.913 3.127 2.761 5.011.547.54 1.13 1.029 1.773 1.49.419.3.863.587 1.34.87.427.251.859.468 1.294.67 1.598.74 3.256 1.18 4.99 1.566-.017-.187-.04-.372-.076-.552-.075-.367-.204-.74-.357-1.113h.017c-.309-.763-.719-1.531-.978-2.26-1.285-3.62-1.5-7.43-.624-11.208.724-3.124 2.325-6.543 4.924-8.57 1.83-1.429 3.973-2.667 6.235-3.495-.167-.218-.32-.409-.456-.54-.458-.438-.972-.615-1.5-.615-.868 0-1.777.476-2.554 1.06.004.011.01.021.013.032-.426.307-.817.638-1.112.936l-.02.019c-.517.532-1.211.801-1.906.801-.654 0-1.308-.238-1.818-.717-.658-.617-.924-1.486-.787-2.305.082-.492.308-.965.682-1.355.04-.04.114-.115.212-.21 1.196-1.197 2.638-2.208 4.288-2.697.685-.204 1.329-.303 1.953-.303.557 0 1.1.08 1.64.234.541.154 1.082.383 1.638.683.457.247.885.564 1.286.89.733.595 1.583 1.915 1.858 3.188.76-.12 1.523-.185 2.283-.185H39.262c.76 0 1.524.065 2.284.185.275-1.273 1.125-2.593 1.857-3.188.401-.326.83-.643 1.287-.89.556-.3 1.097-.529 1.637-.683C46.87.82 47.411.74 47.968.74" mask="url(#cmzte497nj)"/></g></g></g></g></g></g></g></g></svg>