<svg xmlns="http://www.w3.org/2000/svg" xmlns:xlink="http://www.w3.org/1999/xlink" width="64" height="64" viewBox="0 0 64 64">
    <defs>
        <rect id="ksl669he6a" width="988" height="157" x="0" y="0" rx="6"/>
        <mask id="g6ey9kr8pb" width="988" height="157" x="0" y="0" fill="#fff" maskContentUnits="userSpaceOnUse" maskUnits="objectBoundingBox">
            <use xlink:href="#ksl669he6a"/>
        </mask>
    </defs>
    <g fill="none" fill-rule="evenodd">
        <g>
            <path fill="#FFF" d="M0 0H1024V768H0z" transform="translate(-63 -215)"/>
            <path fill="#ECF8FF" d="M0 120H1024V342H0z" transform="translate(-63 -215)"/>
            <g transform="translate(-63 -215) translate(18 168)">
                <use fill="#F9FDFF" stroke="#D6E9F4" stroke-dasharray="8 8" stroke-width="4" mask="url(#g6ey9kr8pb)" xlink:href="#ksl669he6a"/>
                <g fill-rule="nonzero">
                    <g>
                        <g transform="translate(45 47)">
                            <circle cx="32" cy="32" r="32" fill="#4F80FF"/>
                            <g fill="#FFF">
                                <path d="M25.5 0c2.21 0 4 1.79 4 4v22c0 2.21-1.79 4-4 4H23c-1.105 0-2-.895-2-2s.895-2 2-2h2.5V4H23c-1.105 0-2-.895-2-2s.895-2 2-2h2.5zM11.414 5.586c.781.78.781 2.047 0 2.828L6.828 13H20.5c1.105 0 2 .895 2 2s-.895 2-2 2H6.828l4.586 4.586c.781.78.781 2.047 0 2.828-.78.781-2.047.781-2.828 0l-8-8c-.781-.78-.781-2.047 0-2.828l8-8c.78-.781 2.047-.781 2.828 0z" transform="rotate(90 15.5 31.5)"/>
                            </g>
                        </g>
                    </g>
                </g>
            </g>
        </g>
    </g>
</svg>
