<svg xmlns="http://www.w3.org/2000/svg" width="24" height="25" viewBox="0 0 24 25"><g fill="none" fill-rule="evenodd"><g><path fill="#FFF" d="M0 0H1024V768H0z" transform="translate(-682 -174)"/><path fill="#ECF8FF" d="M0 120H1024V343H0z" transform="translate(-682 -174)"/><g><g><g><path fill="#D6E9F4" fill-rule="nonzero" stroke="#D6E9F4" d="M114 .5H6c-1.519 0-2.894.616-3.89 1.61C1.117 3.107.5 4.482.5 6v130c0 2.071.84 3.946 2.197 5.303C4.054 142.661 5.929 143.5 8 143.5h104c2.071 0 3.946-.84 5.303-2.197 1.358-1.357 2.197-3.232 2.197-5.303V6c0-1.519-.616-2.894-1.61-3.89-.996-.994-2.371-1.61-3.89-1.61z" transform="translate(-682 -174) translate(16 168) translate(132) translate(528 .5)"/><path fill="#FFF" fill-rule="nonzero" stroke="#D6E9F4" d="M114 .5H6c-1.519 0-2.894.616-3.89 1.61C1.117 3.107.5 4.482.5 6v102.5h119V6c0-1.519-.616-2.894-1.61-3.89-.996-.994-2.371-1.61-3.89-1.61z" transform="translate(-682 -174) translate(16 168) translate(132) translate(528 .5)"/><g fill="#FFF" fill-rule="nonzero" stroke="#E2E2E2" transform="translate(-682 -174) translate(16 168) translate(132) translate(528 .5) translate(6 6)"><rect width="23" height="23" x=".5" y=".5" rx="6"/></g></g></g></g></g></g></svg>