<svg width="32" height="32" xmlns="http://www.w3.org/2000/svg"><g fill="none" fill-rule="evenodd"><rect x=".5" y=".5" width="31" height="31" rx="4" fill="#FFF" fill-rule="nonzero" stroke="#E2E2E2"/><path d="m20.094 18.08 3.375 3.375 1.524-1.525a.59.59 0 0 1 1.007.417v5.063a.59.59 0 0 1-.59.59h-5.063a.59.59 0 0 1-.417-1.007l1.525-1.524-3.374-3.375 2.013-2.013zm-7.188 0 2.013 2.014-3.374 3.375 1.525 1.524A.59.59 0 0 1 12.653 26H7.59a.59.59 0 0 1-.59-.59v-5.063a.59.59 0 0 1 1.007-.417l1.524 1.525 3.375-3.374zM25.41 7a.59.59 0 0 1 .59.59v5.063a.59.59 0 0 1-1.007.417l-1.524-1.525-3.375 3.374-2.013-2.013 3.374-3.375-1.525-1.524A.59.59 0 0 1 20.347 7h5.063zM12.653 7a.59.59 0 0 1 .417 1.007L11.545 9.53l3.374 3.375-2.013 2.013-3.375-3.374-1.524 1.525A.59.59 0 0 1 7 12.653V7.59A.59.59 0 0 1 7.59 7z" fill="#979797"/></g></svg>