<svg xmlns="http://www.w3.org/2000/svg" width="20" height="20" viewBox="0 0 20 20"><g fill="none" fill-rule="evenodd" transform="translate(-946 -216)"><path fill="#FFF" d="M0 0h1024v768H0z"/><path fill="#D6E9F4" fill-rule="nonzero" d="M0 96h1024v672H0z"/><rect width="908" height="552" x="86" y="188" fill="#FFF" fill-rule="nonzero" rx="6"/><rect width="119" height="94" x=".5" y=".5" fill="#FFF" fill-rule="nonzero" stroke="#E2E2E2" rx="4" transform="translate(854 208)"/><path fill="#D8D8D8" fill-rule="nonzero" d="M956.16 216.004l-.15-.003h.037a2.46 2.46 0 0 0-2.294 1.446l-.419.915a.686.686 0 0 1-.62.408l-.087-.006-.08-.022-.998-.379c-1.043-.43-2.292-.044-2.935.937-.444.62-.55 1.49-.246 2.26l.352.928a.672.672 0 0 1-.351.844l-.923.423a2.451 2.451 0 0 0-1.446 2.253c-.01.96.568 1.855 1.469 2.252l.89.413c.323.15.478.525.354.861l-.355.936a2.426 2.426 0 0 0 .29 2.292 2.49 2.49 0 0 0 2.877.891l.97-.37a.597.597 0 0 1 .226-.045c.26.001.502.157.613.4l.437.93c.381.864 1.273 1.44 2.253 1.432a2.454 2.454 0 0 0 2.229-1.446l.419-.916a.684.684 0 0 1 .62-.404c.06 0 .138.015.212.044l.955.363c1.043.43 2.292.044 2.935-.937.444-.62.55-1.49.246-2.259l-.352-.93a.672.672 0 0 1 .351-.842l.924-.429a2.45 2.45 0 0 0 1.437-2.257 2.45 2.45 0 0 0-1.444-2.235l-.915-.42a.686.686 0 0 1-.346-.855l.354-.931a2.426 2.426 0 0 0-.292-2.292 2.49 2.49 0 0 0-2.875-.891l-.972.37a.597.597 0 0 1-.225.045.68.68 0 0 1-.608-.404l-.416-.921a2.453 2.453 0 0 0-2.101-1.449z"/><path fill="#979797" d="M956.032 216l.128.004c.855.05 1.622.54 2.021 1.285l.08.164.416.92a.68.68 0 0 0 .608.405.552.552 0 0 0 .146-.02l.08-.026.97-.37a2.49 2.49 0 0 1 2.876.892c.445.622.57 1.413.353 2.118l-.062.174-.353.93a.689.689 0 0 0 .257.806l.09.05.914.42a2.45 2.45 0 0 1 1.444 2.235 2.457 2.457 0 0 1-1.277 2.179l-.16.078-.924.429a.674.674 0 0 0-.38.744l.029.099.352.929c.304.768.198 1.639-.246 2.26-.61.928-1.762 1.324-2.768.997l-.167-.06-.955-.364a.635.635 0 0 0-.213-.044.683.683 0 0 0-.571.316l-.048.088-.42.916a2.454 2.454 0 0 1-2.228 1.446 2.454 2.454 0 0 1-2.176-1.273l-.077-.158-.437-.931a.682.682 0 0 0-.613-.4.552.552 0 0 0-.146.02l-.08.026-.97.37a2.49 2.49 0 0 1-2.876-.892 2.434 2.434 0 0 1-.353-2.117l.061-.175.356-.936a.688.688 0 0 0-.263-.81l-.092-.051-.89-.413a2.452 2.452 0 0 1-1.468-2.252 2.457 2.457 0 0 1 1.285-2.175l.16-.078.924-.423a.674.674 0 0 0 .38-.745l-.029-.099-.352-.929c-.304-.768-.198-1.638.246-2.26.61-.928 1.762-1.324 2.768-.997l.167.061.999.379.079.022.087.006a.683.683 0 0 0 .572-.319l.048-.089.419-.915a2.46 2.46 0 0 1 2.11-1.444l.169-.003zm-.021 1.667a.792.792 0 0 0-.69.374l-.05.092-.421.923a2.35 2.35 0 0 1-1.954 1.373l-.17.008-.168-.007a2.318 2.318 0 0 1-.494-.093l-.159-.055-.949-.361a.78.78 0 0 0-.95.293.773.773 0 0 0-.122.627l.034.106.36.95a2.34 2.34 0 0 1-1.068 2.876l-.148.074-.922.423a.794.794 0 0 0-.473.73.794.794 0 0 0 .38.686l.093.048.92.427a2.354 2.354 0 0 1 1.268 2.792l-.052.158-.36.95a.77.77 0 0 0 .089.733c.19.266.519.39.832.326l.117-.033.95-.36c.26-.103.539-.156.82-.156a2.35 2.35 0 0 1 2.05 1.22l.076.153.43.917c.128.29.415.475.73.472.274 0 .524-.139.669-.364l.055-.102.422-.923a2.35 2.35 0 0 1 2.126-1.377c.21.002.42.031.622.089l.199.066.949.361a.78.78 0 0 0 .949-.293.773.773 0 0 0 .123-.626l-.034-.106-.36-.95a2.34 2.34 0 0 1 1.068-2.877l.148-.074.916-.425a.794.794 0 0 0 .471-.732.794.794 0 0 0-.363-.674l-.102-.056-.922-.423a2.354 2.354 0 0 1-1.268-2.785l.052-.157.36-.95a.77.77 0 0 0-.089-.733.822.822 0 0 0-.832-.326l-.117.033-.95.36c-.26.104-.539.156-.82.156a2.35 2.35 0 0 1-2.05-1.235l-.076-.154-.414-.917a.793.793 0 0 0-.731-.472zm-.011 4.722a3.611 3.611 0 1 1 0 7.222 3.611 3.611 0 0 1 0-7.222zm0 1.667a1.944 1.944 0 1 0 0 3.888 1.944 1.944 0 0 0 0-3.888z"/><path fill="#FFF" fill-rule="nonzero" d="M956 224.056a1.944 1.944 0 1 1 0 3.888 1.944 1.944 0 0 1 0-3.888z"/></g></svg>