<svg xmlns="http://www.w3.org/2000/svg" width="40" height="40" viewBox="0 0 40 40">
    <g fill="none" fill-rule="evenodd">
        <path fill="#FFF" fill-rule="nonzero" stroke="#4F80FF" d="M4 .5A3.5 3.5 0 0 0 .5 4v32A3.5 3.5 0 0 0 4 39.5h32a3.5 3.5 0 0 0 3.5-3.5V4A3.5 3.5 0 0 0 36 .5H4z"/>
        <path fill="#4F80FF" fill-rule="nonzero" d="M23.721 8.625l-4.635 11.21 1.808 11.803c-3.222.296-6.542-.723-9.074-3.09-4.8-4.438-5.129-11.934-.69-16.734A11.822 11.822 0 0 1 19.842 8c1.315 0 2.63.197 3.88.625z"/>
        <path fill="#FFB500" d="M31.119 16.22c.329.985.526 2.038.559 3.122.131 3.157-.987 6.181-3.124 8.516-1.742 1.906-4.01 3.09-6.345 3.583L20.5 20.33l10.62-4.11zm-6.181-7.07a10.792 10.792 0 0 1 2.926 2.006 11.336 11.336 0 0 1 2.794 3.814l-9.698 3.78 3.978-9.6z"/>
    </g>
</svg>
