<svg width="40" height="40" xmlns="http://www.w3.org/2000/svg"><g fill="none" fill-rule="evenodd"><path d="M36 .5c.966 0 1.841.392 2.475 1.025A3.489 3.489 0 0 1 39.5 4v32c0 .966-.392 1.841-1.025 2.475A3.489 3.489 0 0 1 36 39.5H4a3.489 3.489 0 0 1-2.475-1.025A3.489 3.489 0 0 1 .5 36V4c0-.966.392-1.841 1.025-2.475A3.489 3.489 0 0 1 4 .5z" stroke="#E2E2E2" fill="#FFF" fill-rule="nonzero"/><path d="M19.5 11a1.5 1.5 0 0 1 1.5 1.5V19h6.5a1.5 1.5 0 0 1 0 3h-6.501L21 27.5a1.5 1.5 0 0 1-3 0l-.001-5.5H12.5a1.5 1.5 0 0 1 0-3H18v-6.5a1.5 1.5 0 0 1 1.5-1.5z" fill="#979797"/></g></svg>