<svg width="16" height="16" xmlns="http://www.w3.org/2000/svg"><g fill="none" fill-rule="evenodd"><path d="M10.481.416 7.391 7.89l1.205 7.869a7.784 7.784 0 0 1-6.05-2.06c-3.2-2.96-3.418-7.957-.46-11.157A7.882 7.882 0 0 1 7.895 0c.876 0 1.753.132 2.586.416z" fill="#4F80FF" fill-rule="nonzero"/><path d="M15.413 5.48c.219.657.35 1.358.372 2.082a7.878 7.878 0 0 1-2.082 5.676c-1.162 1.272-2.674 2.06-4.23 2.39l-1.14-7.409 7.08-2.74zM11.292.766a7.195 7.195 0 0 1 1.95 1.337 7.557 7.557 0 0 1 1.864 2.543L8.64 7.167l2.652-6.4z" fill="#FFB500"/></g></svg>