<svg xmlns="http://www.w3.org/2000/svg" width="40" height="40" viewBox="0 0 40 40"><g fill="none" fill-rule="evenodd"><g><g><g><g><path fill="#FFF" fill-rule="nonzero" stroke="#4F80FF" d="M36 .5c.966 0 1.841.392 2.475 1.025C39.108 2.16 39.5 3.034 39.5 4h0v32c0 .966-.392 1.841-1.025 2.475-.634.633-1.509 1.025-2.475 1.025h0H4c-.966 0-1.841-.392-2.475-1.025C.892 37.84.5 36.966.5 36h0V4c0-.966.392-1.841 1.025-2.475C2.16.892 3.034.5 4 .5h0z" transform="translate(-620 -208) translate(347 192) translate(261 16) translate(12)"/><g><path fill="#4F80FF" fill-rule="nonzero" d="M1 0v21h27v1H0V0h1z" transform="translate(-620 -208) translate(347 192) translate(261 16) translate(12) translate(6 9)"/><g><path fill="#FFB500" d="M0 18v-8h4V4h4V0h4v18H0z" transform="translate(-620 -208) translate(347 192) translate(261 16) translate(12) translate(6 9) translate(4 3)"/><path fill="#4F80FF" d="M8 18v-6h4V3h4v7h4v8H8z" transform="translate(-620 -208) translate(347 192) translate(261 16) translate(12) translate(6 9) translate(4 3)"/></g></g></g></g></g></g></g></svg>