<svg width="20" height="16" xmlns="http://www.w3.org/2000/svg"><g fill="none" fill-rule="evenodd"><path d="M.727 0v15.272h19.637V16L.727 15.999V16H0V0h.727z" fill="#4F80FF" fill-rule="nonzero"/><path stroke="#4F80FF" d="M3.636 8.727 8 5.091l4.364 5.818L17.454 8"/><path d="M12.364 9.455a1.455 1.455 0 1 1 0 2.909 1.455 1.455 0 0 1 0-2.91zM3.636 7.273a1.455 1.455 0 1 1 0 2.909 1.455 1.455 0 0 1 0-2.91zm13.819-.728a1.455 1.455 0 1 1 0 2.91 1.455 1.455 0 0 1 0-2.91zM8 3.636a1.455 1.455 0 1 1 0 2.91 1.455 1.455 0 0 1 0-2.91z" fill="#FFB500"/></g></svg>