<svg xmlns="http://www.w3.org/2000/svg" width="40" height="40" viewBox="0 0 40 40">
    <g fill="none" fill-rule="evenodd">
        <path fill="#FFF" fill-rule="nonzero" stroke="#4F80FF" d="M4 .5A3.5 3.5 0 0 0 .5 4v32A3.5 3.5 0 0 0 4 39.5h32a3.5 3.5 0 0 0 3.5-3.5V4A3.5 3.5 0 0 0 36 .5H4z"/>
        <path fill="#4F80FF" fill-rule="nonzero" d="M7 9v21h27v1H6V9h1z"/>
        <path fill="#FFB500" d="M11.5 24a1.5 1.5 0 1 1 0 3 1.5 1.5 0 0 1 0-3zm7 0a1.5 1.5 0 1 1 0 3 1.5 1.5 0 0 1 0-3zm-1-6a1.5 1.5 0 1 1 0 3 1.5 1.5 0 0 1 0-3zm-7-4a1.5 1.5 0 1 1 0 3 1.5 1.5 0 0 1 0-3z"/>
        <path fill="#4F80FF" d="M28.5 24a1.5 1.5 0 1 1 0 3 1.5 1.5 0 0 1 0-3zm-4-5a1.5 1.5 0 1 1 0 3 1.5 1.5 0 0 1 0-3zm5-3a1.5 1.5 0 1 1 0 3 1.5 1.5 0 0 1 0-3zm-9-3a1.5 1.5 0 1 1 0 3 1.5 1.5 0 0 1 0-3zm6-4a1.5 1.5 0 1 1 0 3 1.5 1.5 0 0 1 0-3z"/>
    </g>
</svg>
