<svg width="32" height="32" xmlns="http://www.w3.org/2000/svg"><g fill="none" fill-rule="evenodd"><rect stroke="#E2E2E2" fill="#FFF" fill-rule="nonzero" x=".5" y=".5" width="31" height="31" rx="4"/><path d="M23.807 18.337a.57.57 0 0 1 .404.974l-1.477 1.475L26 24.052 24.052 26l-3.266-3.266-1.475 1.477a.57.57 0 0 1-.974-.404v-4.9a.57.57 0 0 1 .57-.57zm-10.714 0a.57.57 0 0 1 .57.57v4.9a.57.57 0 0 1-.974.404l-1.475-1.477L7.948 26 6 24.052l3.266-3.266-1.477-1.475a.57.57 0 0 1 .404-.974h4.9zM24.052 6 26 7.948l-3.266 3.266 1.477 1.475a.57.57 0 0 1-.404.974h-4.9a.57.57 0 0 1-.57-.57v-4.9a.57.57 0 0 1 .974-.404l1.475 1.477L24.052 6zM7.948 6l3.266 3.266 1.475-1.477a.57.57 0 0 1 .974.404v4.9a.57.57 0 0 1-.57.57h-4.9a.57.57 0 0 1-.404-.974l1.477-1.475L6 7.948 7.948 6z" fill="#979797"/></g></svg>