<svg width="40" height="40" xmlns="http://www.w3.org/2000/svg"><g fill="none" fill-rule="evenodd"><path d="M36 .5c.966 0 1.841.392 2.475 1.025A3.489 3.489 0 0 1 39.5 4v32c0 .966-.392 1.841-1.025 2.475A3.489 3.489 0 0 1 36 39.5H4a3.489 3.489 0 0 1-2.475-1.025A3.489 3.489 0 0 1 .5 36V4c0-.966.392-1.841 1.025-2.475A3.489 3.489 0 0 1 4 .5z" fill="#FFF" fill-rule="nonzero" stroke="#E2E2E2"/><g transform="translate(6 9)" fill="#979797"><path d="M1 0v21h27v1H0V0h1z" fill-rule="nonzero"/><path fill-rule="nonzero" d="M14 0h1v22h-1z"/><path fill-rule="nonzero" d="M28 10v1H0v-1z"/><circle cx="4.5" cy="16.5" r="1.5"/><circle cx="8.5" cy="18.5" r="1.5"/><circle cx="9.5" cy="13.5" r="1.5"/><circle cx="19.5" cy="6.5" r="1.5"/><circle cx="24.5" cy="3.5" r="1.5"/><circle cx="19.5" cy="1.5" r="1.5"/></g></g></svg>