<svg xmlns="http://www.w3.org/2000/svg" width="22" height="22" viewBox="0 0 22 22"><g fill="none" fill-rule="evenodd"><g><path fill="#FFF" d="M0 0H1024V768H0z" transform="translate(-18 -133)"/><path fill="#ECF8FF" fill-rule="nonzero" stroke="#D6E9F4" d="M257.5 56.5H.5V762c0 1.519.616 2.894 1.61 3.89.996.994 2.371 1.61 3.89 1.61h251.5v-711z" transform="translate(-18 -133)"/><g fill-rule="nonzero"><g><g fill="#ECF8FF" stroke="#D6E9F4"><g><path d="M257.5.5H.5v47h257V.5z" transform="translate(-18 -133) translate(0 120)"/></g></g><g><g transform="translate(-18 -133) translate(0 120) translate(18 13)"><circle cx="11" cy="11" r="10.5" fill="#FFF" stroke="#4F80FF"/><path fill="#4F80FF" d="M16.057 11.42c-.231 2.568-2.39 4.58-5.018 4.58-1.272 0-2.435-.472-3.321-1.25l3.33-3.33h5.01zm-5.476-5.477v4.648l-3.495 3.495C6.406 13.227 6 12.142 6 10.961c0-2.628 2.013-4.787 4.58-5.018zM11.585 5c2.87.259 5.156 2.545 5.415 5.415h-5.416L11.585 5z"/></g></g></g></g></g></g></svg>