<?xml version="1.0" encoding="UTF-8"?>
<svg id="Layer_1" xmlns="http://www.w3.org/2000/svg" version="1.1" viewBox="0 0 64 64">
  <!-- Generator: Adobe Illustrator 29.1.0, SVG Export Plug-In . SVG Version: 2.1.0 Build 142)  -->
  <defs>
    <style>
      .st0 {
        fill: #4f80ff;
      }

      .st1 {
        fill: #fff;
      }
    </style>
  </defs>
  <circle class="st0" cx="32" cy="32" r="32"/>
  <g>
    <path class="st1" d="M29.1,39c-.3.3-.5.7-.5,1.1s.2.8.5,1.1c.3.3.7.5,1.2.5s.9-.2,1.2-.5l2.3-2.2c.8-.8,1.3-1.9,1.3-3,0-1.1-.5-2.2-1.3-3l-2.3-2.2c-.6-.6-1.7-.6-2.4,0-.3.3-.5.7-.5,1.1,0,.4.2.8.5,1.1l1.4,1.3h-12.7c-.9,0-1.7.7-1.7,1.6s.7,1.6,1.7,1.6h12.7l-1.4,1.3Z"/>
    <path class="st1" d="M44.9,23.1l-4.9-4.7c-1.9-1.8-4.5-2.8-7.2-2.8h-6.4c-4,0-7.3,3.2-7.3,7v8.1c0,.9.7,1.6,1.7,1.6s1.7-.7,1.7-1.6v-8.1c0-2.1,1.8-3.8,4-3.8h6.4c.1,0,.3,0,.4,0v6.5c0,2.4,2,4.3,4.5,4.3h6.8c0,.1,0,.3,0,.4v11.5c0,2.1-1.8,3.8-4,3.8h-14.2c-2.2,0-4-1.7-4-3.8s-.7-1.6-1.7-1.6-1.7.7-1.7,1.6c0,3.9,3.3,7,7.3,7h14.2c4,0,7.3-3.2,7.3-7v-11.5c0-2.6-1.1-5.1-3-6.9ZM43.4,26.3h-5.7c-.6,0-1.2-.5-1.2-1.1v-5.5c.4.2.7.5,1.1.8l4.9,4.7c.3.3.6.6.9,1Z"/>
  </g>
</svg>