<svg xmlns="http://www.w3.org/2000/svg" width="152" height="152" viewBox="0 0 152 152">
    <g fill="none" fill-rule="nonzero">
        <path fill="#728997" d="M75.013 1.987a.987.987 0 0 1 1.974 0v7.895a.987.987 0 0 1-1.974 0V1.987zm0 140.131a.987.987 0 1 1 1.974 0v7.895a.987.987 0 1 1-1.974 0v-7.895zm75-67.105a.987.987 0 1 1 0 1.974h-7.895a.987.987 0 1 1 0-1.974h7.895zm-140.131 0a.987.987 0 0 1 0 1.974H1.987a.987.987 0 0 1 0-1.974h7.895zm119.151 52.624a.987.987 0 0 1-1.396 1.396l-5.582-5.582a.987.987 0 1 1 1.396-1.396l5.582 5.582zM29.945 28.55a.987.987 0 0 1-1.396 1.396l-5.582-5.582a.987.987 0 0 1 1.396-1.396l5.582 5.582zm-5.582 100.484a.987.987 0 0 1-1.396-1.396l5.582-5.582a.987.987 0 1 1 1.396 1.396l-5.582 5.582zm99.088-99.088a.987.987 0 0 1-1.396-1.396l5.582-5.582a.987.987 0 0 1 1.396 1.396l-5.582 5.582z"/>
        <path fill="#8AA3B2" d="M37.515 11.622a.746.746 0 0 1 1.292-.746l3.183 5.513a.746.746 0 0 1-1.292.746l-3.183-5.513zm71.62 124.049a.746.746 0 0 1 1.292-.747l3.183 5.514a.746.746 0 0 1-1.292.746l-3.183-5.513zM55.554 3.939a.746.746 0 0 1 1.44-.386l1.648 6.15a.746.746 0 1 1-1.44.386l-1.648-6.15zm37.073 138.359a.746.746 0 0 1 1.44-.387l1.648 6.15a.746.746 0 0 1-1.44.386l-1.648-6.15zm19.99-131.422a.746.746 0 1 1 1.291.746l-3.183 5.513a.746.746 0 1 1-1.292-.746l3.183-5.513zm-71.62 124.048a.746.746 0 1 1 1.292.747l-3.183 5.513a.746.746 0 0 1-1.292-.746l3.183-5.514zM94.429 3.554a.746.746 0 0 1 1.44.385l-1.647 6.15a.746.746 0 1 1-1.441-.387l1.648-6.149zM57.356 141.91a.746.746 0 1 1 1.441.387l-1.648 6.149a.746.746 0 0 1-1.441-.386l1.648-6.15zm83.022-103.82a.746.746 0 0 1 .746 1.293l-5.513 3.183a.746.746 0 0 1-.746-1.292l5.513-3.183zM16.33 109.712a.746.746 0 0 1 .747 1.292l-5.514 3.183a.746.746 0 0 1-.746-1.292l5.513-3.183zm131.732-53.58a.746.746 0 0 1 .386 1.44l-6.15 1.648a.746.746 0 0 1-.386-1.441l6.15-1.648zM9.702 93.202a.746.746 0 1 1 .387 1.441l-6.15 1.648a.746.746 0 0 1-.386-1.441l6.15-1.648zm131.422 19.99a.746.746 0 1 1-.746 1.292l-5.513-3.183a.746.746 0 0 1 .746-1.292l5.513 3.183zM17.076 41.573a.746.746 0 1 1-.747 1.292l-5.513-3.183a.746.746 0 1 1 .746-1.292l5.514 3.183zm131.37 53.432a.746.746 0 0 1-.385 1.441l-6.15-1.647a.746.746 0 0 1 .387-1.441l6.149 1.647zM10.09 57.932a.746.746 0 1 1-.387 1.441l-6.149-1.647a.746.746 0 1 1 .386-1.441l6.15 1.647z"/>
    </g>
</svg>
