<svg width="57" height="50" xmlns="http://www.w3.org/2000/svg" xmlns:xlink="http://www.w3.org/1999/xlink"><defs><path id="a" d="M0 0h56.243v80H0z"/></defs><g fill="none" fill-rule="evenodd"><path d="M53.055 46.396c.25.595.454 1.2.597 1.806.276 1.167-.038 2.447-.967 3.231a3.198 3.198 0 0 1-.594.403c-3.085 1.603-4.584-2.697-4.362-5.056" fill="#0087C6"/><path d="M46.231 33.797a3.22 3.22 0 0 1 1.613-.321c3.1.252 5.912 3.373 7.22 6.003.16.318.265.649.335.986-1.54-.208-3.033-.061-4.565.85a2.51 2.51 0 0 0-.315-1.044c-.393-.733-1.034-1.253-1.712-1.73-.527-.37-.955-.782-1.423-1.223-.714-.672-2.73-2.742-1.153-3.521" fill="#FFF"/><path d="M47.853 47.876c-.099-.943.675-2.125 1.123-2.901.713-1.241 1.945-2.296 1.858-3.661 1.533-.91 3.026-1.057 4.565-.85.42 2.033-.646 4.326-1.762 5.917-.343.488-.677 1.026-1.051 1.489M4.54 32.438a11.575 11.575 0 0 1-1.797-.618C1.646 31.333.817 30.308.755 29.094c-.012-.253 0-.5.039-.717.592-3.425 4.923-2.016 6.665-.41" fill="#0087C6"/><path d="M19.343 34.987a3.218 3.218 0 0 1-.721 1.48c-2.076 2.313-6.263 2.663-9.15 2.112a4.08 4.08 0 0 1-.986-.33c1.097-1.1 1.883-2.378 2.086-4.149.274.182.607.316 1.022.381.822.13 1.624-.063 2.414-.315.613-.196 1.2-.287 1.835-.393.967-.16 3.835-.514 3.5 1.214" fill="#FFF"/><path d="M7.155 27.755c.81.492 1.283 1.824 1.63 2.65.555 1.319.649 2.939 1.787 3.696-.203 1.77-.99 3.048-2.086 4.147-1.873-.895-3.052-3.132-3.642-4.983-.181-.57-.407-1.16-.55-1.74" fill="#0087C6"/><path d="M24.265.988c.538.157 1.075.39 1.628.695.454.251.88.574 1.279.905 1.28 1.065 2.932 4.421 1.168 5.763-1.277.972-2.457-1.453-3.172-2.154-1.604-1.573-3.9.156-5.141 1.456a2.608 2.608 0 0 1-3.702.086 2.651 2.651 0 0 1-.105-3.723c1.229-1.312 2.736-2.43 4.473-2.958 1.29-.39 2.432-.402 3.572-.07" fill="#FFF"/><path d="M20.41 5.913a1.02 1.02 0 0 0-.595.037 1.05 1.05 0 0 0 .48-.64 1.063 1.063 0 0 0-.75-1.29 1.043 1.043 0 0 0-.744.094c.195-.138.353-.336.417-.585a1.06 1.06 0 0 0-.752-1.29c-.05-.015-.1-.006-.154-.01a14.532 14.532 0 0 0-2.092 1.787 2.65 2.65 0 0 0 .106 3.723 2.608 2.608 0 0 0 3.701-.087 8.966 8.966 0 0 1 1.124-.97 1.04 1.04 0 0 0-.74-.77" fill="#673101"/><path d="M39.805.988a8.006 8.006 0 0 0-1.627.695c-.454.251-.88.574-1.279.905-1.282 1.065-2.932 4.421-1.169 5.763 1.277.972 2.457-1.453 3.172-2.154 1.605-1.573 3.9.156 5.141 1.456a2.61 2.61 0 0 0 3.703.086 2.652 2.652 0 0 0 .104-3.723c-1.228-1.312-2.736-2.43-4.473-2.958-1.29-.39-2.43-.402-3.572-.07" fill="#FFF"/><path d="M43.66 5.913a1.02 1.02 0 0 1 .595.037 1.04 1.04 0 0 1-.478-.64 1.062 1.062 0 0 1 .75-1.29c.26-.067.52-.021.743.094a1.033 1.033 0 0 1-.417-.585 1.058 1.058 0 0 1 .75-1.29c.052-.015.102-.006.155-.01a14.565 14.565 0 0 1 2.093 1.787 2.651 2.651 0 0 1-.106 3.723 2.608 2.608 0 0 1-3.701-.087 9.053 9.053 0 0 0-1.125-.97c.092-.362.358-.67.74-.77" fill="#673101"/><path d="M32.727 61.635c.678 0 1.376-.027 2.019-.08 5.441-.444 10.02-2.58 12.56-5.86 2.175-2.806 2.973-7.389 2.8-10.687-.093-1.769-.473-3.515-.84-5.204a63.925 63.925 0 0 1-.511-2.5c-.053-.296-.12-.59-.189-.883-.16-.691-.312-1.346-.252-2.002a10.19 10.19 0 0 1 .297-1.636l.123-.468h-.005c.107-.366.235-.754.392-1.194 1.46-4.081 1.718-8.069.785-12.185-.862-3.816-2.694-7.07-5.026-8.93-3.772-3.011-8.18-4.739-12.098-4.739h-1.471c-3.94 0-8.35 1.728-12.122 4.74-2.331 1.86-4.162 5.114-5.025 8.929-.89 3.928-.678 7.834.63 11.605.153.44.358.896.556 1.335.09.202.183.405.27.61l.136.372c.165.416.273.755.335 1.065.293 1.459-.156 3.164-.589 4.814-.21.798-.409 1.553-.525 2.279-.569 3.558-.986 8.2.858 12.537 1.988 4.677 6.653 7.444 13.49 8.002.657.053 1.328.08 1.992.08h1.41z" fill="#0099ED"/><path d="M31.39 4.891h.005l1.358.001h.032c3.998 0 8.493 1.757 12.33 4.821 2.397 1.912 4.276 5.243 5.158 9.14.949 4.186.687 8.242-.8 12.394-.155.438-.282.826-.388 1.188l-.11.443a9.634 9.634 0 0 0-.286 1.575c-.054.596.09 1.221.243 1.883.068.292.138.594.192.903.146.825.33 1.67.508 2.485.372 1.703.756 3.465.85 5.265.176 3.367-.645 8.053-2.878 10.935-2.606 3.363-7.281 5.552-12.827 6.004a25.39 25.39 0 0 1-2.05.082h-1.409c-.678 0-1.36-.027-2.024-.082-6.984-.569-11.758-3.415-13.803-8.228-1.882-4.425-1.461-9.135-.883-12.745.118-.742.319-1.506.532-2.316.422-1.607.859-3.269.583-4.643a5.87 5.87 0 0 0-.315-1l-.273-.68a19.182 19.182 0 0 0-.128-.288c-.201-.447-.41-.908-.567-1.365-1.332-3.838-1.548-7.812-.643-11.81.883-3.897 2.762-7.228 5.158-9.14 3.838-3.064 8.333-4.82 12.33-4.82h.035l.065-.002h.005zm.005.751-.077.001h-.032c-4.218 0-8.551 2.014-11.862 4.656-2.583 2.063-4.175 5.54-4.894 8.72-.87 3.841-.658 7.718.619 11.398.258.743.666 1.524.972 2.3h-.017c.152.38.28.76.355 1.132.454 2.265-.755 5.006-1.11 7.226-.661 4.128-.84 8.4.832 12.331 2.278 5.36 7.734 7.331 13.174 7.774.653.054 1.308.08 1.963.08l.077-.002 1.332.001c.655 0 1.336-.025 1.989-.079 4.484-.366 9.443-2.034 12.294-5.715 2.064-2.663 2.896-7.112 2.722-10.437-.136-2.594-.896-5.112-1.347-7.658-.177-.998-.536-1.976-.444-2.986a10.46 10.46 0 0 1 .307-1.695h-.01c.147-.573.33-1.139.529-1.694 1.427-3.987 1.709-7.847.774-11.978-.72-3.178-2.311-6.655-4.894-8.718-3.311-2.642-7.644-4.656-11.862-4.656h-1.39z" fill="#004B70"/><path d="M32.752 5.643h-.077.077z" fill="#0099ED"/><path d="M32.281 35.332c1.058 0 2.04-.015 3.004-.045l1.786-.052c5.233-.166 9.39-2.525 11.118-6.31.714-1.563.942-3.485.645-5.41-.303-1.957-.565-2.808-1.618-4.314-.284-.406-.309-1.037-.332-1.648-.014-.346-.027-.703-.09-1.022a11.153 11.153 0 0 0-1.205-3.332c-1.372-2.44-4.332-4.087-6.573-5.04a18.51 18.51 0 0 0-4.763-1.29 18.493 18.493 0 0 0-2.383-.142c-1.572 0-3.143.163-4.423.459a18.16 18.16 0 0 0-3.034.974c-2.664 1.13-4.715 2.874-5.932 5.039-.563.998-.968 2.12-1.205 3.332-.063.319-.077.676-.09 1.022-.024.61-.049 1.242-.332 1.648-1.053 1.506-1.316 2.357-1.618 4.314-.298 1.924-.069 3.846.644 5.41 1.73 3.785 5.885 6.144 11.12 6.31 2.113.067 3.742.097 5.281.097" fill="#FFF"/><path d="M31.87 6.414c.87 0 1.685.049 2.423.146a18.8 18.8 0 0 1 4.846 1.312c2.286.97 5.308 2.657 6.723 5.174a11.475 11.475 0 0 1 1.239 3.426c.067.34.082.712.096 1.069.021.565.044 1.15.275 1.48 1.081 1.547 1.366 2.467 1.671 4.447.307 1.985.069 3.969-.669 5.587-1.779 3.896-6.038 6.323-11.393 6.493l-.979.028-.808.025c-.968.029-1.954.043-3.015.043-1.545 0-3.177-.03-5.29-.096-5.355-.17-9.614-2.597-11.393-6.493-.738-1.618-.976-3.602-.669-5.587.305-1.981.589-2.901 1.671-4.447.23-.33.253-.915.275-1.48.014-.357.028-.728.096-1.07a11.457 11.457 0 0 1 1.239-3.425c1.252-2.227 3.355-4.016 6.082-5.174.956-.406 1.995-.74 3.086-.992 1.304-.301 2.899-.466 4.494-.466m0 .625c-1.497 0-3.067.154-4.353.45-1.019.236-2.02.55-2.982.958-2.374 1.009-4.502 2.63-5.782 4.905a10.906 10.906 0 0 0-1.171 3.24c-.167.853.042 2.054-.471 2.788-1.041 1.488-1.28 2.327-1.566 4.182-.27 1.747-.119 3.614.62 5.233 1.925 4.215 6.581 5.992 10.843 6.127 1.767.056 3.516.096 5.271.096.996 0 1.993-.012 2.996-.043l1.786-.053c4.262-.135 8.919-1.912 10.844-6.127.738-1.62.89-3.486.62-5.233-.286-1.855-.525-2.694-1.566-4.182-.513-.734-.304-1.935-.472-2.788a10.85 10.85 0 0 0-1.171-3.24c-1.279-2.274-4.048-3.896-6.422-4.905a18.067 18.067 0 0 0-4.682-1.266 18.16 18.16 0 0 0-2.342-.142" fill="#004B70"/><path d="M25.593 24.217c0 2.483-1.999 4.496-4.462 4.496-2.463 0-4.46-2.013-4.46-4.496 0-2.48 1.997-4.493 4.46-4.493s4.462 2.013 4.462 4.493m21.807 0c0 2.483-2 4.496-4.464 4.496-2.463 0-4.46-2.013-4.46-4.496 0-2.48 1.997-4.493 4.46-4.493 2.464 0 4.463 2.013 4.463 4.493" fill="#FFB9B5"/><path d="M32.805 22.773c0 .324-.341.586-.77.586-.426 0-.77-.262-.77-.586 0-.32.344-.585.77-.585.429 0 .77.264.77.585m3.654-.698c-.577 0-1.044-.435-1.044-.971v-.135c0-.537.467-.972 1.044-.972s1.045.435 1.045.972v.135c0 .536-.468.971-1.045.971m-8.849 0c-.577 0-1.045-.435-1.045-.971v-.135c0-.537.468-.972 1.045-.972s1.045.435 1.045.972v.135c0 .536-.468.971-1.045.971" fill="#000"/><path d="M36.924 25.631c.328-.228.887-.683.937-1.175a.675.675 0 0 0-.186-.54.384.384 0 0 0-.588.492c-.045.111-.258.353-.601.591-1.228.853-3.23.537-4.197-.314a.385.385 0 0 0-.507 0c-.97.851-2.97 1.165-4.198.314-.342-.238-.555-.48-.601-.59a.384.384 0 0 0-.587-.495.672.672 0 0 0-.186.542c.049.491.608.946.936 1.175 1.45 1.005 3.64.718 4.889-.168.697.496 1.689.804 2.68.804.784 0 1.568-.192 2.209-.636z" fill="#231815"/><mask id="b" fill="#fff"><use xlink:href="#a"/></mask><path d="M50.056 41.756c.027-.131.038-.262.03-.394a1.793 1.793 0 0 0-.28-.826c.087.404.172.81.25 1.22M22.634 0c.622 0 1.224.088 1.84.268a8.706 8.706 0 0 1 1.782.759c.43.238.875.55 1.396.984.68.565 1.489 1.715 1.914 2.985a14.989 14.989 0 0 1 1.72-.103h.034l.066-.001h1.367c.58 0 1.163.036 1.752.105.425-1.271 1.234-2.421 1.914-2.986.52-.433.965-.745 1.396-.984a8.73 8.73 0 0 1 1.78-.76A6.477 6.477 0 0 1 41.436 0c.7 0 1.408.11 2.16.34 1.616.49 3.159 1.479 4.585 2.939.094.094.172.175.214.219a3.403 3.403 0 0 1-.128 4.782 3.343 3.343 0 0 1-2.327.939c-.93 0-1.797-.372-2.44-1.05a8.317 8.317 0 0 0-1.025-.883l-.405-.298.008-.03c-.63-.418-1.205-.637-1.683-.637a1.27 1.27 0 0 0-.621.152 24.122 24.122 0 0 1 5.342 3.24c2.397 1.914 4.276 5.244 5.158 9.14.949 4.188.687 8.243-.8 12.395-.155.436-.281.82-.387 1.185l-.111.446-.01.039c2.912.766 5.458 3.583 6.773 6.227.178.359.308.74.397 1.168.55 2.66-1.134 5.43-1.883 6.499l-.16.23c.126.363.219.684.29.987.36 1.52-.105 3.044-1.212 3.979a4.096 4.096 0 0 1-.733.496c-.553.287-1.102.433-1.631.433a2.83 2.83 0 0 1-1.423-.384c-.472 1.324-1.068 2.455-1.78 3.372-2.414 3.116-6.008 4.613-8.795 5.33v9.693a5.098 5.098 0 0 1 1.645-.253c.455 0 .942.05 1.447.149l.126.028a7.049 7.049 0 0 1 4.735 3.659c.534 1.05.836 3.047-.165 4.195-.978 1.12-2.333 1.274-3.652 1.274-.192 0-.384-.003-.573-.006-.174-.003-.346-.006-.514-.006H36.06c-1.151 0-2.892-.897-2.892-2.251V62.006c-.152.003-.298.005-.44.005l-1.333-.001h-.076c-.446 0-.894-.011-1.34-.035l-.943 4.589-.147.734-1.491 7.229-.285 3.249c-.033 1.332-1.751 2.212-2.891 2.212h-5.506c-.168 0-.34.003-.515.006-.19.003-.38.006-.573.006-1.32 0-2.674-.154-3.651-1.274-1.001-1.148-.7-3.144-.165-4.195.942-1.853 2.728-3.224 4.778-3.67a7.14 7.14 0 0 1 1.356-.135 5.49 5.49 0 0 1 2.368.51l.75-3.626.123-.615 1.222-5.933c-4.384-1.276-7.382-3.75-8.918-7.362-1.881-4.425-1.46-9.135-.882-12.744.089-.56.225-1.132.378-1.726-.942.215-1.966.328-3.023.328a14.22 14.22 0 0 1-2.63-.241 4.776 4.776 0 0 1-1.171-.392c-2.451-1.173-3.637-4.19-4.033-5.433a21.33 21.33 0 0 0-.142-.427 11.997 11.997 0 0 1-1.55-.56C1.012 31.873.08 30.58.007 29.134a4.044 4.044 0 0 1 .049-.883c.3-1.737 1.486-2.733 3.253-2.733 1.787 0 3.668.984 4.66 1.898l.467.43-.05.076c.438.6.74 1.34.978 1.915l.114.278c.18.43.313.874.44 1.303.267.9.498 1.678 1.07 2.059.2.133.438.218.725.264.136.022.279.033.424.033.559 0 1.145-.163 1.644-.323.57-.181 1.105-.278 1.66-.371l-.032-.082-.271-.68c-.044-.095-.087-.192-.13-.288-.201-.447-.41-.91-.567-1.365-1.332-3.84-1.548-7.812-.643-11.811.883-3.896 2.762-7.227 5.158-9.14a24.168 24.168 0 0 1 5.342-3.24 1.263 1.263 0 0 0-.62-.152c-.476 0-1.05.218-1.677.633l.008.03-.411.303c-.384.282-.743.59-1.011.868l-.003.004-.02.019a3.326 3.326 0 0 1-2.431 1.04 3.346 3.346 0 0 1-2.328-.938A3.409 3.409 0 0 1 14.8 5.274a3.373 3.373 0 0 1 .87-1.771c.048-.05.127-.131.23-.234 1.42-1.451 2.96-2.44 4.576-2.93A7.34 7.34 0 0 1 22.634 0m27.01 43.985c-.211-1.892-.69-3.75-1.068-5.617.076.058.15.118.23.174.68.477 1.32.997 1.714 1.73.199.37.294.715.315 1.044.063.989-.568 1.816-1.191 2.669M22.634.75c-.62 0-1.26.1-1.941.308-1.64.497-3.073 1.525-4.262 2.743-.098.097-.171.173-.211.214a2.625 2.625 0 0 0-.678 1.378 2.657 2.657 0 0 0 .783 2.345 2.61 2.61 0 0 0 3.702-.086l.019-.02a8.93 8.93 0 0 1 1.106-.951c-.003-.011-.01-.022-.013-.033.77-.594 1.676-1.08 2.538-1.08.525 0 1.036.182 1.49.628.136.133.288.328.454.548-2.25.843-4.378 2.103-6.197 3.555-2.583 2.062-4.175 5.54-4.894 8.719-.87 3.84-.658 7.718.619 11.399.258.742.666 1.524.972 2.3h-.017c.13.327.238.653.314.975-.224.026-.425.056-.576.08-.634.106-1.221.198-1.834.393-.616.196-1.24.358-1.872.358-.18 0-.36-.013-.541-.042a2.54 2.54 0 0 1-1.022-.381c-1.14-.757-1.233-2.377-1.788-3.696-.303-.72-.701-1.825-1.335-2.421l.01-.017c-.954-.88-2.684-1.7-4.152-1.7-1.212 0-2.246.56-2.514 2.11a3.334 3.334 0 0 0-.038.718c.062 1.214.89 2.238 1.987 2.725.57.253 1.174.457 1.798.619l.018-.027c.096.286.196.573.285.853.59 1.85 1.77 4.088 3.642 4.983.31.149.638.265.987.33a13.37 13.37 0 0 0 2.49.229c1.372 0 2.813-.2 4.084-.674-.261 1.022-.552 2.026-.698 2.942-.661 4.128-.84 8.4.832 12.33 1.704 4.008 5.183 6.12 9.104 7.118l-1.363 6.623h.003l-1.098 5.316s-.96-.985-2.882-.985c-.365 0-.764.035-1.197.119-1.815.393-3.426 1.62-4.268 3.275-.456.897-.655 2.54.062 3.362.789.905 1.954 1.016 3.085 1.016.37 0 .739-.012 1.088-.012h5.506c.828 0 2.14-.671 2.14-1.5l.292-3.318 1.5-7.272-.005-.001 1.227-5.964c.646.053 1.295.078 1.943.078l.077-.001h1.332c.392 0 .792-.012 1.192-.03v4.679h-.001v11.829c0 .829 1.312 1.5 2.14 1.5h5.8c.349 0 .716.012 1.087.012 1.13 0 2.296-.111 3.086-1.016.716-.822.517-2.465.06-3.362a6.284 6.284 0 0 0-4.233-3.267l-.1-.023a6.783 6.783 0 0 0-1.304-.135c-1.736 0-2.395.81-2.395.81v-11.59c3.444-.79 6.799-2.421 8.952-5.2.89-1.148 1.549-2.628 1.999-4.207.473.56 1.072.927 1.797.927.392 0 .82-.108 1.286-.35.195-.101.4-.238.594-.402.929-.784 1.242-2.065.966-3.232-.1-.425-.24-.845-.393-1.265.126-.188.252-.376.379-.556 1.116-1.591 2.182-3.884 1.76-5.916a4.013 4.013 0 0 0-.333-.986c-1.277-2.568-3.988-5.595-7-5.973.052-.274.113-.547.183-.816h-.011c.148-.574.33-1.14.53-1.695 1.427-3.986 1.709-7.846.774-11.976-.72-3.18-2.311-6.657-4.894-8.72-1.82-1.451-3.95-2.711-6.197-3.554.166-.22.317-.415.453-.548.455-.446.965-.627 1.49-.627.863 0 1.767.485 2.539 1.079-.003.01-.01.022-.013.033a8.93 8.93 0 0 1 1.106.952l.019.019a2.61 2.61 0 0 0 3.702.086 2.657 2.657 0 0 0 .783-2.345 2.632 2.632 0 0 0-.678-1.378c-.04-.041-.113-.116-.21-.212-1.19-1.22-2.622-2.248-4.263-2.745A6.635 6.635 0 0 0 41.437.75c-.555 0-1.093.08-1.631.237a8.043 8.043 0 0 0-1.628.696c-.454.25-.88.573-1.28.904-.727.605-1.572 1.949-1.845 3.243a14.36 14.36 0 0 0-2.27-.187h-.03l-1.358-.001h-.108c-.755 0-1.514.067-2.27.188-.273-1.294-1.117-2.638-1.845-3.243a8.4 8.4 0 0 0-1.28-.904 8.012 8.012 0 0 0-1.627-.696A5.772 5.772 0 0 0 22.634.75" fill="#231815" mask="url(#b)"/></g></svg>