<?xml version="1.0" encoding="utf-8"?>
<!-- Generator: Adobe Illustrator 25.3.1, SVG Export Plug-In . SVG Version: 6.00 Build 0)  -->
<svg version="1.1" xmlns="http://www.w3.org/2000/svg" xmlns:xlink="http://www.w3.org/1999/xlink" x="0px" y="0px"
	 viewBox="0 0 2240 240" style="enable-background:new 0 0 2240 240;" xml:space="preserve">
<style type="text/css">
	.st0{fill:#4F7FFE;}
	.st1{fill:none;}
</style>
<g id="_x31_">
</g>
<g id="_x32_">
</g>
<g id="_x33_">
</g>
<g id="_x34_">
	<g>
		<path class="st0" d="M1039.5,240h-38V58.2c0-2.5,2-4.6,4.6-4.6h28.9c2.5,0,4.6,2,4.6,4.6V240z"/>
		<path class="st0" d="M1105.5,240h-38v-63.7c0-2.5,2-4.6,4.6-4.6h28.9c2.5,0,4.6,2,4.6,4.6V240z"/>
		<path class="st0" d="M1171.5,240h-38V124.6c0-2.5,2-4.6,4.6-4.6h28.9c2.5,0,4.6,2,4.6,4.6V240z"/>
		<path class="st0" d="M1237.5,240h-38V27.6c0-2.5,2-4.6,4.6-4.6h28.9c2.5,0,4.6,2,4.6,4.6V240z"/>
		<g>
			<rect x="999.5" y="0" class="st1" width="240" height="240"/>
		</g>
	</g>
	<g>
		<path class="st0" d="M1289.5,240.5h-38V79.6c0-2.5,2-4.6,4.6-4.6h28.9c2.5,0,4.6,2,4.6,4.6V240.5z"/>
		<path class="st0" d="M1355.5,240.5h-38v-33.4c0-2.5,2-4.6,4.6-4.6h28.9c2.5,0,4.6,2,4.6,4.6V240.5z"/>
		<path class="st0" d="M1421.5,240.5h-38v-78.1c0-2.5,2-4.6,4.6-4.6h28.9c2.5,0,4.6,2,4.6,4.6V240.5z"/>
		<path class="st0" d="M1487.5,240.5h-38V28.1c0-2.5,2-4.6,4.6-4.6h28.9c2.5,0,4.6,2,4.6,4.6V240.5z"/>
		<g>
			<rect x="1249.5" y="0.5" class="st1" width="240" height="240"/>
		</g>
	</g>
	<g>
		<path class="st0" d="M1539.8,240h-38V119.7c0-2.5,2-4.6,4.6-4.6h28.9c2.5,0,4.6,2,4.6,4.6V240z"/>
		<path class="st0" d="M1605.8,240h-38v-78.1c0-2.5,2-4.6,4.6-4.6h28.9c2.5,0,4.6,2,4.6,4.6V240z"/>
		<path class="st0" d="M1671.8,240h-38v-36.8c0-2.5,2-4.6,4.6-4.6h28.9c2.5,0,4.6,2,4.6,4.6V240z"/>
		<path class="st0" d="M1737.8,240h-38V58.2c0-2.5,2-4.6,4.6-4.6h28.9c2.5,0,4.6,2,4.6,4.6V240z"/>
		<g>
			<rect x="1499.8" y="0" class="st1" width="240" height="240"/>
		</g>
	</g>
	<g>
		<path class="st0" d="M1790.1,240h-38v-78.1c0-2.5,2-4.6,4.6-4.6h28.9c2.5,0,4.6,2,4.6,4.6V240z"/>
		<path class="st0" d="M1856.1,240h-38V119.7c0-2.5,2-4.6,4.6-4.6h28.9c2.5,0,4.6,2,4.6,4.6V240z"/>
		<path class="st0" d="M1922.1,240h-38v-57.9c0-2.5,2-4.6,4.6-4.6h28.9c2.5,0,4.6,2,4.6,4.6V240z"/>
		<path class="st0" d="M1988.1,240h-38V136.1c0-2.5,2-4.6,4.6-4.6h28.9c2.5,0,4.6,2,4.6,4.6V240z"/>
		<g>
			<rect x="1750.1" y="0" class="st1" width="240" height="240"/>
		</g>
	</g>
	<g>
		<path class="st0" d="M40.5,240h-38V130.5c0-2.5,2-4.6,4.6-4.6h28.9c2.5,0,4.6,2,4.6,4.6V240z"/>
		<path class="st0" d="M106.5,240h-38V27.6c0-2.5,2-4.6,4.6-4.6h28.9c2.5,0,4.6,2,4.6,4.6V240z"/>
		<path class="st0" d="M172.5,240h-38V92.5c0-2.5,2-4.6,4.6-4.6h28.9c2.5,0,4.6,2,4.6,4.6V240z"/>
		<path class="st0" d="M238.5,240h-38v-58.2c0-2.5,2-4.6,4.6-4.6h28.9c2.5,0,4.6,2,4.6,4.6V240z"/>
		<g>
			<rect x="0.5" y="0" class="st1" width="240" height="240"/>
		</g>
	</g>
	<g>
		<path class="st0" d="M289.5,240h-38V67.2c0-2.5,2-4.6,4.6-4.6h28.9c2.5,0,4.6,2,4.6,4.6V240z"/>
		<path class="st0" d="M355.5,240h-38V27.6c0-2.5,2-4.6,4.6-4.6h28.9c2.5,0,4.6,2,4.6,4.6V240z"/>
		<path class="st0" d="M421.5,240h-38V27.6c0-2.5,2-4.6,4.6-4.6h28.9c2.5,0,4.6,2,4.6,4.6V240z"/>
		<path class="st0" d="M487.5,240h-38V130.5c0-2.5,2-4.6,4.6-4.6h28.9c2.5,0,4.6,2,4.6,4.6V240z"/>
		<g>
			<rect x="249.5" y="0" class="st1" width="240" height="240"/>
		</g>
	</g>
	<g>
		<path class="st0" d="M539.5,240h-38V27.6c0-2.5,2-4.6,4.6-4.6h28.9c2.5,0,4.6,2,4.6,4.6V240z"/>
		<path class="st0" d="M605.5,240h-38V79.1c0-2.5,2-4.6,4.6-4.6h28.9c2.5,0,4.6,2,4.6,4.6V240z"/>
		<path class="st0" d="M671.5,240h-38V27.6c0-2.5,2-4.6,4.6-4.6h28.9c2.5,0,4.6,2,4.6,4.6V240z"/>
		<path class="st0" d="M737.5,240h-38V79.1c0-2.5,2-4.6,4.6-4.6h28.9c2.5,0,4.6,2,4.6,4.6V240z"/>
		<g>
			<rect x="499.5" y="0" class="st1" width="240" height="240"/>
		</g>
	</g>
	<g>
		<path class="st0" d="M789.5,240h-38V27.6c0-2.5,2-4.6,4.6-4.6h28.9c2.5,0,4.6,2,4.6,4.6V240z"/>
		<path class="st0" d="M855.5,240h-38V124.6c0-2.5,2-4.6,4.6-4.6h28.9c2.5,0,4.6,2,4.6,4.6V240z"/>
		<path class="st0" d="M921.5,240h-38V58.2c0-2.5,2-4.6,4.6-4.6h28.9c2.5,0,4.6,2,4.6,4.6V240z"/>
		<path class="st0" d="M987.5,240h-38V58.2c0-2.5,2-4.6,4.6-4.6h28.9c2.5,0,4.6,2,4.6,4.6V240z"/>
		<g>
			<rect x="749.5" y="0" class="st1" width="240" height="240"/>
		</g>
	</g>
	<g>
		<path class="st0" d="M2040,240h-38V136.1c0-2.5,2-4.6,4.6-4.6h28.9c2.5,0,4.6,2,4.6,4.6V240z"/>
		<path class="st0" d="M2106,240h-38V58.2c0-2.5,2-4.6,4.6-4.6h28.9c2.5,0,4.6,2,4.6,4.6V240z"/>
		<path class="st0" d="M2172,240h-38V119.7c0-2.5,2-4.6,4.6-4.6h28.9c2.5,0,4.6,2,4.6,4.6V240z"/>
		<path class="st0" d="M2238,240h-38v-78.1c0-2.5,2-4.6,4.6-4.6h28.9c2.5,0,4.6,2,4.6,4.6V240z"/>
		<g>
			<rect x="2000" y="0" class="st1" width="240" height="240"/>
		</g>
	</g>
</g>
</svg>
