<svg xmlns="http://www.w3.org/2000/svg" xmlns:xlink="http://www.w3.org/1999/xlink" x="0" y="0" version="1.1" viewBox="0 0 2240 240" style="enable-background:new 0 0 2240 240" xml:space="preserve"><style type="text/css">.st0{fill:#4f7ffe}.st1{fill:none}</style><g id="_x34_"><g><path d="M1039.5,240h-38V58.2c0-2.5,2-4.6,4.6-4.6h28.9c2.5,0,4.6,2,4.6,4.6V240z" class="st0"/><path d="M1105.5,240h-38v-63.7c0-2.5,2-4.6,4.6-4.6h28.9c2.5,0,4.6,2,4.6,4.6V240z" class="st0"/><path d="M1171.5,240h-38V124.6c0-2.5,2-4.6,4.6-4.6h28.9c2.5,0,4.6,2,4.6,4.6V240z" class="st0"/><path d="M1237.5,240h-38V27.6c0-2.5,2-4.6,4.6-4.6h28.9c2.5,0,4.6,2,4.6,4.6V240z" class="st0"/><g><rect width="240" height="240" x="999.5" y="0" class="st1"/></g></g><g><path d="M1289.5,240.5h-38V79.6c0-2.5,2-4.6,4.6-4.6h28.9c2.5,0,4.6,2,4.6,4.6V240.5z" class="st0"/><path d="M1355.5,240.5h-38v-33.4c0-2.5,2-4.6,4.6-4.6h28.9c2.5,0,4.6,2,4.6,4.6V240.5z" class="st0"/><path d="M1421.5,240.5h-38v-78.1c0-2.5,2-4.6,4.6-4.6h28.9c2.5,0,4.6,2,4.6,4.6V240.5z" class="st0"/><path d="M1487.5,240.5h-38V28.1c0-2.5,2-4.6,4.6-4.6h28.9c2.5,0,4.6,2,4.6,4.6V240.5z" class="st0"/><g><rect width="240" height="240" x="1249.5" y=".5" class="st1"/></g></g><g><path d="M1539.8,240h-38V119.7c0-2.5,2-4.6,4.6-4.6h28.9c2.5,0,4.6,2,4.6,4.6V240z" class="st0"/><path d="M1605.8,240h-38v-78.1c0-2.5,2-4.6,4.6-4.6h28.9c2.5,0,4.6,2,4.6,4.6V240z" class="st0"/><path d="M1671.8,240h-38v-36.8c0-2.5,2-4.6,4.6-4.6h28.9c2.5,0,4.6,2,4.6,4.6V240z" class="st0"/><path d="M1737.8,240h-38V58.2c0-2.5,2-4.6,4.6-4.6h28.9c2.5,0,4.6,2,4.6,4.6V240z" class="st0"/><g><rect width="240" height="240" x="1499.8" y="0" class="st1"/></g></g><g><path d="M1790.1,240h-38v-78.1c0-2.5,2-4.6,4.6-4.6h28.9c2.5,0,4.6,2,4.6,4.6V240z" class="st0"/><path d="M1856.1,240h-38V119.7c0-2.5,2-4.6,4.6-4.6h28.9c2.5,0,4.6,2,4.6,4.6V240z" class="st0"/><path d="M1922.1,240h-38v-57.9c0-2.5,2-4.6,4.6-4.6h28.9c2.5,0,4.6,2,4.6,4.6V240z" class="st0"/><path d="M1988.1,240h-38V136.1c0-2.5,2-4.6,4.6-4.6h28.9c2.5,0,4.6,2,4.6,4.6V240z" class="st0"/><g><rect width="240" height="240" x="1750.1" y="0" class="st1"/></g></g><g><path d="M40.5,240h-38V130.5c0-2.5,2-4.6,4.6-4.6h28.9c2.5,0,4.6,2,4.6,4.6V240z" class="st0"/><path d="M106.5,240h-38V27.6c0-2.5,2-4.6,4.6-4.6h28.9c2.5,0,4.6,2,4.6,4.6V240z" class="st0"/><path d="M172.5,240h-38V92.5c0-2.5,2-4.6,4.6-4.6h28.9c2.5,0,4.6,2,4.6,4.6V240z" class="st0"/><path d="M238.5,240h-38v-58.2c0-2.5,2-4.6,4.6-4.6h28.9c2.5,0,4.6,2,4.6,4.6V240z" class="st0"/><g><rect width="240" height="240" x=".5" y="0" class="st1"/></g></g><g><path d="M289.5,240h-38V67.2c0-2.5,2-4.6,4.6-4.6h28.9c2.5,0,4.6,2,4.6,4.6V240z" class="st0"/><path d="M355.5,240h-38V27.6c0-2.5,2-4.6,4.6-4.6h28.9c2.5,0,4.6,2,4.6,4.6V240z" class="st0"/><path d="M421.5,240h-38V27.6c0-2.5,2-4.6,4.6-4.6h28.9c2.5,0,4.6,2,4.6,4.6V240z" class="st0"/><path d="M487.5,240h-38V130.5c0-2.5,2-4.6,4.6-4.6h28.9c2.5,0,4.6,2,4.6,4.6V240z" class="st0"/><g><rect width="240" height="240" x="249.5" y="0" class="st1"/></g></g><g><path d="M539.5,240h-38V27.6c0-2.5,2-4.6,4.6-4.6h28.9c2.5,0,4.6,2,4.6,4.6V240z" class="st0"/><path d="M605.5,240h-38V79.1c0-2.5,2-4.6,4.6-4.6h28.9c2.5,0,4.6,2,4.6,4.6V240z" class="st0"/><path d="M671.5,240h-38V27.6c0-2.5,2-4.6,4.6-4.6h28.9c2.5,0,4.6,2,4.6,4.6V240z" class="st0"/><path d="M737.5,240h-38V79.1c0-2.5,2-4.6,4.6-4.6h28.9c2.5,0,4.6,2,4.6,4.6V240z" class="st0"/><g><rect width="240" height="240" x="499.5" y="0" class="st1"/></g></g><g><path d="M789.5,240h-38V27.6c0-2.5,2-4.6,4.6-4.6h28.9c2.5,0,4.6,2,4.6,4.6V240z" class="st0"/><path d="M855.5,240h-38V124.6c0-2.5,2-4.6,4.6-4.6h28.9c2.5,0,4.6,2,4.6,4.6V240z" class="st0"/><path d="M921.5,240h-38V58.2c0-2.5,2-4.6,4.6-4.6h28.9c2.5,0,4.6,2,4.6,4.6V240z" class="st0"/><path d="M987.5,240h-38V58.2c0-2.5,2-4.6,4.6-4.6h28.9c2.5,0,4.6,2,4.6,4.6V240z" class="st0"/><g><rect width="240" height="240" x="749.5" y="0" class="st1"/></g></g><g><path d="M2040,240h-38V136.1c0-2.5,2-4.6,4.6-4.6h28.9c2.5,0,4.6,2,4.6,4.6V240z" class="st0"/><path d="M2106,240h-38V58.2c0-2.5,2-4.6,4.6-4.6h28.9c2.5,0,4.6,2,4.6,4.6V240z" class="st0"/><path d="M2172,240h-38V119.7c0-2.5,2-4.6,4.6-4.6h28.9c2.5,0,4.6,2,4.6,4.6V240z" class="st0"/><path d="M2238,240h-38v-78.1c0-2.5,2-4.6,4.6-4.6h28.9c2.5,0,4.6,2,4.6,4.6V240z" class="st0"/><g><rect width="240" height="240" x="2000" y="0" class="st1"/></g></g></g></svg>