<svg xmlns="http://www.w3.org/2000/svg" xmlns:xlink="http://www.w3.org/1999/xlink" width="160" height="160" viewBox="0 0 160 160">
    <defs>
        <circle id="prefix__a" cx="80" cy="80" r="80"/>
    </defs>
    <g fill="none" fill-rule="evenodd">
        <mask id="prefix__b" fill="#fff">
            <use xlink:href="#prefix__a"/>
        </mask>
        <use fill="#CBCBCB" xlink:href="#prefix__a"/>
        <path fill="#CBCBCB" d="M77.681 215.377V264h-36.44c-.339-1.291-.577-2.624-.577-4.02 0-.808.06-1.601.177-2.377l-.177.055c.135-1.224.41-2.405.82-3.525l.323-.078c.825-2.059 2.07-3.908 3.628-5.447-.521.126-1.056.288-1.598.491 1.054-1.156 2.311-2.159 3.724-2.982.436-.038.855-.063 1.256-.075 1.442-.826 3.026-1.44 4.706-1.8l.262-.06c7.126-1.37 16.405 1.75 16.405 1.75v-30.555h7.491zm25.472 0v30.556s9.278-3.121 16.404-1.751l.262.06c1.727.37 3.351 1.008 4.827 1.869l.078.006c1.412.823 2.67 1.826 3.723 2.982l-.095-.035c2.685 2.868 4.326 6.7 4.326 10.916 0 1.396-.238 2.729-.576 4.02H95.661v-48.623h7.492zM82.749 37.301l.27.337c.177.236.774 1.058 1.505 2.324.344-.014.694-.023 1.046-.03.068 0 .135 0 .202-.002.467-.01.942-.013 1.421-.011l-.965.004c.339-.004.68-.005 1.025-.004l-.11-.001h.063c.043 0 .191-.004.435-.005h.376c.515.004 1.274.018 2.228.064.328.016.678.036 1.049.06.034-.07.063-.124.084-.164l.216-.375c4.332-7.086 9.728-8.853 13.497-9.07 10.404-.633 18.884 9.849 19.812 11.045.987 1.265 1.453 2.779 1.428 4.277.037 2.016-.85 4.03-2.582 5.384-.461.361-.955.655-1.469.881 4.473 4.715 7.45 11.264 7.212 20.358v3.542c3.254 3.904 4.244 9 4.244 14.883 0 4.758-1.587 9.428-4.243 13.374v6.367c1.237.674 2.519 1.689 3.67 2.827.612.603 12.367 10.914 15.594 32.485l.105.015c1.302 9.325 1.067 20.673-2.219 34.2-.832 3.429-3.359 5.65-6.13 5.714-.529.012-1.068-.053-1.606-.205-.165-.045-.33-.098-.495-.16-3.485-1.29-5.474-5.75-4.44-9.954.243-.989.467-1.964.674-2.925l.06-.278-.06.278c.052-.245.104-.49.154-.733l-.095.455c.493-2.343.882-4.607 1.178-6.793 2.809-20.872-3.018-34.435-6.392-40.216v32.519c0 11.755-10.932 21.817-26.427 25.974v30.578h-7.403v-29.1c-2.736.368-5.568.561-8.468.561-3.27 0-6.455-.246-9.512-.711v29.25h-7.403v-30.869c-14.94-4.322-25.383-14.194-25.383-25.683v-34.04c-2.195 3.741-5.786 11.477-6.77 22.956l.3.084c-.647 7.8-.078 17.288 2.964 28.408 1.161 4.253-.811 8.825-4.403 10.207-.709.274-1.43.4-2.135.398H34.618c-2.808-.008-5.413-2.17-6.325-5.57-2.443-9.101-3.45-17.24-3.492-24.443-.024-3.487.18-6.757.558-9.815l.01-.002c2.75-22.097 14.568-32.863 15.179-33.487 1.356-1.392 2.9-2.612 4.347-3.287V72.059s.5-9.596 7.55-18.3c-2.192-1.305-3.393-3.66-3.316-6.046-.039-1.18.237-2.384.863-3.486l.077-.132c1.058-1.803 7.806-12.71 17.939-13.63 3.773-.354 9.386.567 14.74 6.836z" style="mix-blend-mode:multiply" mask="url(#prefix__b)"/>
        <g mask="url(#prefix__b)">
            <g>
                <path fill="#FFF" d="M9.818 155.381c-2.808-.008-5.413-2.17-6.325-5.57C-8.7 104.392 14.88 82.953 15.748 82.064c2.81-2.884 6.432-5.032 8.304-3.116 2.913 2.983.53 8.91-2.229 11.8-.693.759-14.893 19.563-5.624 54.087 1.133 4.228-.791 8.775-4.296 10.15-.692.273-1.396.398-2.085.396" transform="translate(16 27.2)"/>
                <path fill="#008AC4" d="M12.186 154.983c-.709.274-1.43.4-2.135.398-2.878-.007-5.547-2.182-6.482-5.6C-.12 136.291-.6 124.923.56 115.552c3.4-.5 8.123-.607 13.067.815-.648 7.8-.079 17.288 2.963 28.408 1.161 4.253-.811 8.825-4.403 10.207" transform="translate(16 27.2)"/>
                <path fill="#FFF" d="M115.676 155.365c2.77-.063 5.297-2.253 6.129-5.634 11.122-45.165-12.566-65.901-13.442-66.765-2.828-2.796-6.444-4.848-8.253-2.917-2.814 3.01-.346 8.823 2.433 11.627.7.737 15.082 19.054 6.629 53.385-1.034 4.205.955 8.664 4.44 9.955.688.255 1.384.365 2.064.35" transform="translate(16 27.2)"/>
                <path fill="#008AC4" d="M113.65 155.024c.688.26 1.384.371 2.064.356 2.77-.064 5.297-2.285 6.13-5.714 3.285-13.527 3.52-24.875 2.218-34.2-3.283-.43-7.833-.446-12.565 1.07.778 7.766.42 17.242-2.289 28.394-1.032 4.265.957 8.786 4.442 10.094" transform="translate(16 27.2)"/>
                <path fill="#02A2E7" d="M62.393 9.519c-40.62-.096-42.298 32.14-42.298 32.14v85.708c0 15.474 18.94 28.014 42.298 28.014 23.356 0 42.299-12.54 42.299-28.013V41.973C105.572 8.305 62.393 9.52 62.393 9.52" transform="translate(16 27.2)"/>
                <path fill="#008AC4" d="M75.092 103.2c0-7.376-5.922-13.354-13.221-13.354S48.655 95.824 48.655 103.2v20.841c0 .006-.004.01-.004.017 0 7.373 5.921 13.354 13.22 13.354 7.295 0 13.22-5.981 13.22-13.354V103.2z" transform="translate(16 27.2)"/>
                <path fill="#FFF" d="M71.49 31.615c.074-.013.154-.024.228-.04 3.622-.746 5.971-4.32 5.257-7.985-.57-2.88.81-6.528 1.325-7.62.616-.964 1.685-2.37 2.719-2.427 2.373-.153 6.577 3.429 8.581 5.96 2.301 2.913 6.502 3.386 9.391 1.055 2.89-2.321 3.39-6.566 1.112-9.485C99.175 9.877 90.695-.605 80.29.027c-3.77.218-9.165 1.985-13.497 9.07l-.216.376c-.452.861-4.346 8.595-2.73 16.813.713 3.592 4.105 5.937 7.642 5.329" transform="translate(16 27.2)"/>
                <path fill="#673101" d="M88.82 15.2c.545-.096 1.06.025 1.527.229-.557-.393-.964-.996-1.09-1.723-.24-1.46.764-2.838 2.241-3.09.695-.111 1.349.057 1.897.4-.476-.393-.834-.926-.944-1.579-.246-1.46.76-2.842 2.244-3.083.135-.03.266.006.399.006 2.764 2.291 4.581 4.481 4.985 4.988 2.316 2.89 1.809 7.086-1.13 9.386-2.937 2.303-7.208 1.838-9.547-1.044-.687-.848-1.637-1.811-2.677-2.707.321-.897 1.077-1.613 2.095-1.783" transform="translate(16 27.2)"/>
                <path fill="#FFF" d="M56.651 29.595c-.073.003-.155.001-.233-.008-3.699-.183-6.568-3.322-6.404-7.01.135-2.897-1.778-6.25-2.453-7.243-.753-.845-2.024-2.057-3.065-1.96-2.372.21-6.01 4.339-7.62 7.107-1.846 3.19-5.943 4.285-9.157 2.444-3.212-1.841-4.343-5.899-2.527-9.098.752-1.304 7.594-12.815 18.016-13.762 3.773-.354 9.386.567 14.74 6.836l.271.337c.574.767 5.597 7.735 5.218 16.008-.163 3.61-3.176 6.412-6.786 6.349" transform="translate(16 27.2)"/>
                <path fill="#673101" d="M36.813 16.394c-.543-.014-1.031.186-1.463.454.488-.48.797-1.135.805-1.877.02-1.492-1.177-2.713-2.661-2.747-.691-.01-1.311.262-1.797.684.404-.464.676-1.05.683-1.705.019-1.494-1.172-2.721-2.663-2.746-.136-.007-.256.049-.39.067-2.36 2.694-3.807 5.145-4.132 5.709-1.823 3.223-.687 7.321 2.54 9.177 3.22 1.857 7.331.752 9.184-2.465.547-.944 1.33-2.04 2.213-3.092-.448-.843-1.302-1.448-2.32-1.459" transform="translate(16 27.2)"/>
                <path fill="#02A2E7" d="M62.453 9.519c-25.37-.06-35.127 12.921-38.87 22.241-2.222 4.98-3.488 10.56-3.488 16.469 0 4.838.847 9.459 2.37 13.711 3.88 11.67 15.792 21.564 39.988 21.564 22.739 0 41.182-8.91 41.182-24.084V41.342C104.492 8.33 62.453 9.52 62.453 9.52" transform="translate(16 27.2)"/>
                <path fill="#FFF" d="M102.217 43.126c-.638-18.7-14.605-26.174-26.228-28.853-1.472-.38-6.157-1.139-7.257-1.215-4.897-.527-8.337-.343-8.337-.343-21.328.206-38.599 15.729-39.115 35.032l-.012.002S17.543 78.41 52.42 83.951c2.963.41 5.552.61 8.4.61h24.975c12.399 0 23.14-11.781 23.14-24.163 0-7.17-1.47-13.172-6.72-17.272" transform="translate(16 27.2)"/>
                <path fill="#FFC0BB" d="M49.708 56.019c0 6.422-5.212 11.63-11.635 11.63S26.44 62.44 26.44 56.019c0-6.417 5.209-11.624 11.632-11.624s11.635 5.207 11.635 11.624M105.763 56.019c0 6.422-5.212 11.63-11.639 11.63-6.424 0-11.63-5.208-11.63-11.63 0-6.417 5.206-11.624 11.63-11.624 6.427 0 11.639 5.207 11.639 11.624" transform="translate(16 27.2)"/>
                <path fill="#000" d="M67.688 53.38c0 .876-.703 1.585-1.583 1.585s-1.59-.709-1.59-1.585c0-.87.71-1.586 1.59-1.586.88 0 1.583.715 1.583 1.586M56.239 46.509l-4.399 1.889c-.004.063-.016.123-.016.187v.394c0 1.554 1.183 2.815 2.643 2.815 1.46 0 2.645-1.26 2.645-2.815v-.394c0-.826-.34-1.561-.873-2.076M73.85 46.509l4.397 1.889c.005.063.017.123.017.187v.394c0 1.554-1.183 2.815-2.644 2.815-1.46 0-2.644-1.26-2.644-2.815v-.394c0-.826.34-1.561.873-2.076M56.966 63.419c-.82.016-1.55-.06-2.126-.181-.61-.13-1.008-.731-.876-1.345.125-.617.73-1.012 1.344-.88.25.051 6.092 1.165 9.175-4.41.21-.38.616-.605 1.064-.58.435.02.817.294.982.703.074.148 1.857 4.009 9.515 3.862.625-.011 1.15.49 1.163 1.118.012.625-.493 1.143-1.117 1.153-6.088.117-9.16-2.07-10.583-3.667-2.473 3.232-5.955 4.175-8.541 4.227" transform="translate(16 27.2)"/>
                <path fill="#A9DEEA" d="M43.363 34.944l-.072-3.22c-.01-.604-.568-1.08-1.241-1.07-.677.013-1.216.508-1.202 1.113l.062 3.001c.007.6-.528 1.092-1.193 1.108-.678.01-1.232-.47-1.25-1.068l-.063-3c-.013-.607-.575-1.082-1.246-1.067-.679.004-1.21.5-1.198 1.108l.068 3.216c.002.083.036.157.058.234.283 1.577 1.824 2.783 3.678 2.753 1.848-.034 3.337-1.294 3.551-2.88.018-.077.05-.148.048-.228" transform="translate(16 27.2)"/>
            </g>
        </g>
    </g>
</svg>
